G04 MADE WITH FRITZING*
G04 WWW.FRITZING.ORG*
G04 DOUBLE SIDED*
G04 HOLES PLATED*
G04 CONTOUR ON CENTER OF CONTOUR VECTOR*
%ASAXBY*%
%FSLAX23Y23*%
%MOIN*%
%OFA0B0*%
%SFA1.0B1.0*%
%ADD10C,0.075000*%
%ADD11C,0.070000*%
%ADD12C,0.075433*%
%ADD13R,0.039370X0.078740*%
%ADD14R,0.075000X0.075000*%
%ADD15C,0.024000*%
%ADD16C,0.020000*%
%ADD17R,0.001000X0.001000*%
%LNCOPPER1*%
G90*
G70*
G54D10*
X634Y1328D03*
X634Y1928D03*
X734Y1328D03*
X734Y1928D03*
X834Y1328D03*
X834Y1928D03*
X934Y1328D03*
X934Y1928D03*
X1034Y1328D03*
X1034Y1928D03*
X1134Y1328D03*
X1134Y1928D03*
X1234Y1328D03*
X1234Y1928D03*
X1334Y1328D03*
X1334Y1928D03*
X1434Y1328D03*
X1434Y1928D03*
X1534Y1328D03*
X1534Y1928D03*
X1634Y1328D03*
X1634Y1928D03*
X1734Y1328D03*
X1734Y1928D03*
X1834Y1328D03*
X1834Y1928D03*
X1934Y1328D03*
X1934Y1928D03*
X1734Y1028D03*
X1734Y728D03*
X1634Y1028D03*
X1634Y728D03*
X1534Y1028D03*
X1534Y728D03*
X1434Y1028D03*
X1434Y728D03*
X1334Y1028D03*
X1334Y728D03*
X1234Y1028D03*
X1234Y728D03*
X1134Y1028D03*
X1134Y728D03*
X1034Y1028D03*
X1034Y728D03*
X2610Y2057D03*
X2910Y2057D03*
X2610Y1957D03*
X2910Y1957D03*
X2610Y1857D03*
X2910Y1857D03*
X2610Y1757D03*
X2910Y1757D03*
X2610Y1657D03*
X2910Y1657D03*
X2610Y1557D03*
X2910Y1557D03*
X2610Y1457D03*
X2910Y1457D03*
X2610Y1357D03*
X2910Y1357D03*
G54D11*
X742Y1217D03*
X642Y1217D03*
X942Y1217D03*
X842Y1217D03*
G54D12*
X1764Y496D03*
X924Y1096D03*
X852Y472D03*
X468Y520D03*
X2148Y1312D03*
X540Y400D03*
X636Y256D03*
G54D13*
X934Y228D03*
X734Y228D03*
X534Y228D03*
X334Y228D03*
X1034Y357D03*
X834Y357D03*
X634Y357D03*
X434Y357D03*
G54D14*
X634Y1328D03*
X2610Y2057D03*
G54D15*
X940Y1243D02*
X936Y1299D01*
D02*
X840Y1243D02*
X836Y1299D01*
D02*
X2581Y1857D02*
X1548Y1864D01*
X1548Y1864D02*
X1540Y1900D01*
D02*
X1812Y880D02*
X1655Y746D01*
D02*
X1960Y1937D02*
X2412Y2104D01*
X2412Y2104D02*
X2676Y2128D01*
X2676Y2128D02*
X2676Y1504D01*
X2676Y1504D02*
X2633Y1474D01*
D02*
X1852Y1950D02*
X1860Y1960D01*
X1860Y1960D02*
X2292Y2176D01*
X2292Y2176D02*
X2724Y2176D01*
X2724Y2176D02*
X2724Y1288D01*
X2724Y1288D02*
X2556Y1288D01*
X2556Y1288D02*
X2532Y1528D01*
X2532Y1528D02*
X2583Y1547D01*
D02*
X919Y230D02*
X780Y256D01*
X780Y256D02*
X780Y376D01*
X780Y376D02*
X564Y568D01*
X564Y568D02*
X564Y1408D01*
X564Y1408D02*
X725Y1900D01*
D02*
X1020Y400D02*
X1023Y391D01*
D02*
X839Y391D02*
X847Y443D01*
D02*
X748Y221D02*
X876Y160D01*
X876Y160D02*
X996Y160D01*
X996Y160D02*
X1319Y703D01*
D02*
X2882Y1650D02*
X2772Y1624D01*
X2772Y1624D02*
X2772Y1216D01*
D02*
X1860Y808D02*
X1812Y784D01*
X1812Y784D02*
X1812Y664D01*
X1812Y664D02*
X1334Y628D01*
D02*
X1334Y628D02*
X1334Y699D01*
D02*
X448Y363D02*
X513Y389D01*
D02*
X635Y285D02*
X634Y324D01*
D02*
X2882Y1548D02*
X2820Y1528D01*
X2820Y1528D02*
X2820Y1144D01*
X2820Y1144D02*
X2135Y929D01*
D02*
X2135Y929D02*
X1934Y729D01*
D02*
X1934Y729D02*
X1860Y592D01*
X1860Y592D02*
X1434Y528D01*
D02*
X1434Y528D02*
X1428Y112D01*
X1428Y112D02*
X828Y112D01*
X828Y112D02*
X708Y136D01*
X708Y136D02*
X651Y231D01*
D02*
X1254Y1948D02*
X1500Y2200D01*
X1500Y2200D02*
X2772Y2224D01*
X2772Y2224D02*
X2868Y1960D01*
X2868Y1960D02*
X2881Y1959D01*
D02*
X2895Y1333D02*
X2868Y1288D01*
X2868Y1288D02*
X2868Y1072D01*
X2868Y1072D02*
X2232Y829D01*
D02*
X2232Y829D02*
X2035Y628D01*
D02*
X2035Y628D02*
X1908Y520D01*
X1908Y520D02*
X1764Y520D01*
X1764Y520D02*
X1764Y525D01*
D02*
X1411Y745D02*
X1056Y1010D01*
D02*
X1962Y1325D02*
X2119Y1314D01*
D02*
X334Y261D02*
X335Y528D01*
D02*
X335Y528D02*
X439Y522D01*
D02*
X2935Y1844D02*
X2988Y1816D01*
X2988Y1816D02*
X2988Y1312D01*
X2988Y1312D02*
X2916Y1024D01*
X2916Y1024D02*
X1476Y64D01*
X1476Y64D02*
X660Y64D01*
X660Y64D02*
X548Y209D01*
G54D16*
X1761Y1000D02*
X1706Y1000D01*
X1706Y1055D01*
X1761Y1055D01*
X1761Y1000D01*
D02*
G54D17*
X1830Y1340D02*
X1836Y1340D01*
X1828Y1339D02*
X1838Y1339D01*
X1826Y1338D02*
X1840Y1338D01*
X1825Y1337D02*
X1841Y1337D01*
X1824Y1336D02*
X1842Y1336D01*
X1823Y1335D02*
X1842Y1335D01*
X1823Y1334D02*
X1843Y1334D01*
X1822Y1333D02*
X1843Y1333D01*
X1822Y1332D02*
X1844Y1332D01*
X1822Y1331D02*
X1844Y1331D01*
X1821Y1330D02*
X1844Y1330D01*
X1821Y1329D02*
X1844Y1329D01*
X1821Y1328D02*
X1844Y1328D01*
X1821Y1327D02*
X1844Y1327D01*
X1822Y1326D02*
X1845Y1326D01*
X1822Y1325D02*
X1845Y1325D01*
X1822Y1324D02*
X1845Y1324D01*
X1822Y1323D02*
X1845Y1323D01*
X1822Y1322D02*
X1845Y1322D01*
X1822Y1321D02*
X1845Y1321D01*
X1822Y1320D02*
X1845Y1320D01*
X1822Y1319D02*
X1845Y1319D01*
X1822Y1318D02*
X1845Y1318D01*
X1822Y1317D02*
X1845Y1317D01*
X1822Y1316D02*
X1845Y1316D01*
X1822Y1315D02*
X1845Y1315D01*
X1822Y1314D02*
X1846Y1314D01*
X1822Y1313D02*
X1846Y1313D01*
X1823Y1312D02*
X1846Y1312D01*
X1823Y1311D02*
X1846Y1311D01*
X1823Y1310D02*
X1846Y1310D01*
X1823Y1309D02*
X1846Y1309D01*
X1823Y1308D02*
X1846Y1308D01*
X1823Y1307D02*
X1846Y1307D01*
X1823Y1306D02*
X1846Y1306D01*
X1823Y1305D02*
X1846Y1305D01*
X1823Y1304D02*
X1847Y1304D01*
X1824Y1303D02*
X1847Y1303D01*
X1824Y1302D02*
X1847Y1302D01*
X1824Y1301D02*
X1847Y1301D01*
X1824Y1300D02*
X1847Y1300D01*
X1824Y1299D02*
X1847Y1299D01*
X1824Y1298D02*
X1847Y1298D01*
X1824Y1297D02*
X1848Y1297D01*
X1824Y1296D02*
X1848Y1296D01*
X1825Y1295D02*
X1848Y1295D01*
X1825Y1294D02*
X1848Y1294D01*
X1825Y1293D02*
X1848Y1293D01*
X1825Y1292D02*
X1848Y1292D01*
X1825Y1291D02*
X1848Y1291D01*
X1825Y1290D02*
X1849Y1290D01*
X1826Y1289D02*
X1849Y1289D01*
X1826Y1288D02*
X1849Y1288D01*
X1826Y1287D02*
X1849Y1287D01*
X1826Y1286D02*
X1849Y1286D01*
X1826Y1285D02*
X1850Y1285D01*
X1826Y1284D02*
X1850Y1284D01*
X1827Y1283D02*
X1850Y1283D01*
X1827Y1282D02*
X1850Y1282D01*
X1827Y1281D02*
X1850Y1281D01*
X1827Y1280D02*
X1851Y1280D01*
X1827Y1279D02*
X1851Y1279D01*
X1828Y1278D02*
X1851Y1278D01*
X1828Y1277D02*
X1851Y1277D01*
X1828Y1276D02*
X1851Y1276D01*
X1828Y1275D02*
X1852Y1275D01*
X1828Y1274D02*
X1852Y1274D01*
X1829Y1273D02*
X1852Y1273D01*
X1829Y1272D02*
X1852Y1272D01*
X1829Y1271D02*
X1852Y1271D01*
X1829Y1270D02*
X1853Y1270D01*
X1829Y1269D02*
X1853Y1269D01*
X1830Y1268D02*
X1853Y1268D01*
X1830Y1267D02*
X1853Y1267D01*
X1830Y1266D02*
X1854Y1266D01*
X1830Y1265D02*
X1854Y1265D01*
X1831Y1264D02*
X1854Y1264D01*
X1831Y1263D02*
X1855Y1263D01*
X1831Y1262D02*
X1855Y1262D01*
X1831Y1261D02*
X1855Y1261D01*
X1832Y1260D02*
X1855Y1260D01*
X1832Y1259D02*
X1856Y1259D01*
X1832Y1258D02*
X1856Y1258D01*
X1832Y1257D02*
X1856Y1257D01*
X1833Y1256D02*
X1856Y1256D01*
X1833Y1255D02*
X1857Y1255D01*
X1833Y1254D02*
X1857Y1254D01*
X1833Y1253D02*
X1857Y1253D01*
X1834Y1252D02*
X1858Y1252D01*
X1834Y1251D02*
X1858Y1251D01*
X1834Y1250D02*
X1858Y1250D01*
X1835Y1249D02*
X1859Y1249D01*
X1835Y1248D02*
X1859Y1248D01*
X1835Y1247D02*
X1859Y1247D01*
X1836Y1246D02*
X1860Y1246D01*
X1836Y1245D02*
X1860Y1245D01*
X1836Y1244D02*
X1860Y1244D01*
X1836Y1243D02*
X1861Y1243D01*
X1837Y1242D02*
X1861Y1242D01*
X1837Y1241D02*
X1861Y1241D01*
X1837Y1240D02*
X1862Y1240D01*
X1838Y1239D02*
X1862Y1239D01*
X1838Y1238D02*
X1862Y1238D01*
X1838Y1237D02*
X1863Y1237D01*
X1839Y1236D02*
X1863Y1236D01*
X1839Y1235D02*
X1863Y1235D01*
X1839Y1234D02*
X1864Y1234D01*
X1840Y1233D02*
X1864Y1233D01*
X1840Y1232D02*
X1865Y1232D01*
X1840Y1231D02*
X1865Y1231D01*
X1841Y1230D02*
X1865Y1230D01*
X1841Y1229D02*
X1866Y1229D01*
X1842Y1228D02*
X1866Y1228D01*
X2733Y1228D02*
X2775Y1228D01*
X1842Y1227D02*
X1867Y1227D01*
X2713Y1227D02*
X2777Y1227D01*
X1842Y1226D02*
X1867Y1226D01*
X2696Y1226D02*
X2779Y1226D01*
X1843Y1225D02*
X1867Y1225D01*
X2684Y1225D02*
X2780Y1225D01*
X1843Y1224D02*
X1868Y1224D01*
X2672Y1224D02*
X2780Y1224D01*
X1843Y1223D02*
X1868Y1223D01*
X2662Y1223D02*
X2781Y1223D01*
X1844Y1222D02*
X1869Y1222D01*
X2653Y1222D02*
X2782Y1222D01*
X1844Y1221D02*
X1869Y1221D01*
X2644Y1221D02*
X2782Y1221D01*
X1845Y1220D02*
X1869Y1220D01*
X2636Y1220D02*
X2782Y1220D01*
X1845Y1219D02*
X1870Y1219D01*
X2628Y1219D02*
X2783Y1219D01*
X1845Y1218D02*
X1870Y1218D01*
X2620Y1218D02*
X2783Y1218D01*
X1846Y1217D02*
X1871Y1217D01*
X2614Y1217D02*
X2783Y1217D01*
X1846Y1216D02*
X1871Y1216D01*
X2607Y1216D02*
X2783Y1216D01*
X1847Y1215D02*
X1872Y1215D01*
X2600Y1215D02*
X2783Y1215D01*
X1847Y1214D02*
X1872Y1214D01*
X2594Y1214D02*
X2782Y1214D01*
X1847Y1213D02*
X1873Y1213D01*
X2588Y1213D02*
X2782Y1213D01*
X1848Y1212D02*
X1873Y1212D01*
X2582Y1212D02*
X2782Y1212D01*
X1848Y1211D02*
X1874Y1211D01*
X2577Y1211D02*
X2781Y1211D01*
X1849Y1210D02*
X1874Y1210D01*
X2571Y1210D02*
X2781Y1210D01*
X1849Y1209D02*
X1874Y1209D01*
X2566Y1209D02*
X2780Y1209D01*
X1850Y1208D02*
X1875Y1208D01*
X2561Y1208D02*
X2779Y1208D01*
X1850Y1207D02*
X1875Y1207D01*
X2555Y1207D02*
X2777Y1207D01*
X1851Y1206D02*
X1876Y1206D01*
X2550Y1206D02*
X2776Y1206D01*
X1851Y1205D02*
X1876Y1205D01*
X2545Y1205D02*
X2771Y1205D01*
X1851Y1204D02*
X1877Y1204D01*
X2541Y1204D02*
X2732Y1204D01*
X1852Y1203D02*
X1877Y1203D01*
X2536Y1203D02*
X2712Y1203D01*
X1852Y1202D02*
X1878Y1202D01*
X2531Y1202D02*
X2696Y1202D01*
X1853Y1201D02*
X1878Y1201D01*
X2527Y1201D02*
X2684Y1201D01*
X1853Y1200D02*
X1879Y1200D01*
X2522Y1200D02*
X2672Y1200D01*
X1854Y1199D02*
X1879Y1199D01*
X2518Y1199D02*
X2662Y1199D01*
X1854Y1198D02*
X1880Y1198D01*
X2514Y1198D02*
X2653Y1198D01*
X1855Y1197D02*
X1880Y1197D01*
X2510Y1197D02*
X2644Y1197D01*
X1855Y1196D02*
X1881Y1196D01*
X2505Y1196D02*
X2636Y1196D01*
X1856Y1195D02*
X1881Y1195D01*
X2501Y1195D02*
X2628Y1195D01*
X1856Y1194D02*
X1882Y1194D01*
X2497Y1194D02*
X2621Y1194D01*
X1857Y1193D02*
X1882Y1193D01*
X2493Y1193D02*
X2614Y1193D01*
X1857Y1192D02*
X1883Y1192D01*
X2489Y1192D02*
X2607Y1192D01*
X1858Y1191D02*
X1884Y1191D01*
X2485Y1191D02*
X2601Y1191D01*
X1858Y1190D02*
X1884Y1190D01*
X2481Y1190D02*
X2594Y1190D01*
X1859Y1189D02*
X1885Y1189D01*
X2478Y1189D02*
X2589Y1189D01*
X1859Y1188D02*
X1885Y1188D01*
X2474Y1188D02*
X2583Y1188D01*
X1860Y1187D02*
X1886Y1187D01*
X2470Y1187D02*
X2577Y1187D01*
X1860Y1186D02*
X1886Y1186D01*
X2467Y1186D02*
X2572Y1186D01*
X1861Y1185D02*
X1887Y1185D01*
X2463Y1185D02*
X2566Y1185D01*
X1861Y1184D02*
X1887Y1184D01*
X2460Y1184D02*
X2561Y1184D01*
X1862Y1183D02*
X1888Y1183D01*
X2456Y1183D02*
X2556Y1183D01*
X1862Y1182D02*
X1888Y1182D01*
X2453Y1182D02*
X2551Y1182D01*
X1863Y1181D02*
X1889Y1181D01*
X2449Y1181D02*
X2546Y1181D01*
X1863Y1180D02*
X1890Y1180D01*
X2446Y1180D02*
X2541Y1180D01*
X1864Y1179D02*
X1890Y1179D01*
X2443Y1179D02*
X2537Y1179D01*
X1864Y1178D02*
X1891Y1178D01*
X2439Y1178D02*
X2532Y1178D01*
X1865Y1177D02*
X1891Y1177D01*
X2436Y1177D02*
X2528Y1177D01*
X1865Y1176D02*
X1892Y1176D01*
X2433Y1176D02*
X2523Y1176D01*
X1866Y1175D02*
X1892Y1175D01*
X2429Y1175D02*
X2519Y1175D01*
X1866Y1174D02*
X1893Y1174D01*
X2426Y1174D02*
X2515Y1174D01*
X1867Y1173D02*
X1894Y1173D01*
X2423Y1173D02*
X2511Y1173D01*
X1868Y1172D02*
X1894Y1172D01*
X2420Y1172D02*
X2506Y1172D01*
X1868Y1171D02*
X1895Y1171D01*
X2417Y1171D02*
X2502Y1171D01*
X1869Y1170D02*
X1895Y1170D01*
X2414Y1170D02*
X2498Y1170D01*
X1869Y1169D02*
X1896Y1169D01*
X2411Y1169D02*
X2495Y1169D01*
X1870Y1168D02*
X1897Y1168D01*
X2408Y1168D02*
X2491Y1168D01*
X1870Y1167D02*
X1897Y1167D01*
X2405Y1167D02*
X2487Y1167D01*
X1871Y1166D02*
X1898Y1166D01*
X2402Y1166D02*
X2483Y1166D01*
X1872Y1165D02*
X1898Y1165D01*
X2399Y1165D02*
X2479Y1165D01*
X1872Y1164D02*
X1899Y1164D01*
X2396Y1164D02*
X2476Y1164D01*
X1873Y1163D02*
X1900Y1163D01*
X2393Y1163D02*
X2472Y1163D01*
X1873Y1162D02*
X1900Y1162D01*
X2390Y1162D02*
X2468Y1162D01*
X1874Y1161D02*
X1901Y1161D01*
X2387Y1161D02*
X2465Y1161D01*
X1874Y1160D02*
X1901Y1160D01*
X2384Y1160D02*
X2461Y1160D01*
X1875Y1159D02*
X1902Y1159D01*
X2381Y1159D02*
X2458Y1159D01*
X1876Y1158D02*
X1903Y1158D01*
X2379Y1158D02*
X2454Y1158D01*
X1876Y1157D02*
X1903Y1157D01*
X2376Y1157D02*
X2451Y1157D01*
X1877Y1156D02*
X1904Y1156D01*
X2373Y1156D02*
X2448Y1156D01*
X1877Y1155D02*
X1905Y1155D01*
X2370Y1155D02*
X2444Y1155D01*
X1878Y1154D02*
X1905Y1154D01*
X2368Y1154D02*
X2441Y1154D01*
X1879Y1153D02*
X1906Y1153D01*
X2365Y1153D02*
X2438Y1153D01*
X1879Y1152D02*
X1906Y1152D01*
X2362Y1152D02*
X2435Y1152D01*
X1880Y1151D02*
X1907Y1151D01*
X2360Y1151D02*
X2431Y1151D01*
X1880Y1150D02*
X1908Y1150D01*
X2357Y1150D02*
X2428Y1150D01*
X1881Y1149D02*
X1908Y1149D01*
X2354Y1149D02*
X2425Y1149D01*
X1882Y1148D02*
X1909Y1148D01*
X2352Y1148D02*
X2422Y1148D01*
X1882Y1147D02*
X1909Y1147D01*
X2349Y1147D02*
X2419Y1147D01*
X1883Y1146D02*
X1910Y1146D01*
X2347Y1146D02*
X2416Y1146D01*
X1883Y1145D02*
X1911Y1145D01*
X2344Y1145D02*
X2413Y1145D01*
X1884Y1144D02*
X1911Y1144D01*
X2341Y1144D02*
X2410Y1144D01*
X1885Y1143D02*
X1912Y1143D01*
X2339Y1143D02*
X2407Y1143D01*
X1885Y1142D02*
X1912Y1142D01*
X2336Y1142D02*
X2404Y1142D01*
X1886Y1141D02*
X1913Y1141D01*
X2334Y1141D02*
X2401Y1141D01*
X1887Y1140D02*
X1914Y1140D01*
X2331Y1140D02*
X2398Y1140D01*
X1887Y1139D02*
X1914Y1139D01*
X2329Y1139D02*
X2395Y1139D01*
X1888Y1138D02*
X1915Y1138D01*
X2326Y1138D02*
X2392Y1138D01*
X1888Y1137D02*
X1915Y1137D01*
X2324Y1137D02*
X2390Y1137D01*
X1889Y1136D02*
X1916Y1136D01*
X2322Y1136D02*
X2387Y1136D01*
X1890Y1135D02*
X1917Y1135D01*
X2319Y1135D02*
X2384Y1135D01*
X1890Y1134D02*
X1917Y1134D01*
X2317Y1134D02*
X2381Y1134D01*
X1891Y1133D02*
X1918Y1133D01*
X2314Y1133D02*
X2378Y1133D01*
X1891Y1132D02*
X1919Y1132D01*
X2312Y1132D02*
X2376Y1132D01*
X1892Y1131D02*
X1919Y1131D01*
X2310Y1131D02*
X2373Y1131D01*
X1893Y1130D02*
X1920Y1130D01*
X2307Y1130D02*
X2370Y1130D01*
X1893Y1129D02*
X1920Y1129D01*
X2305Y1129D02*
X2368Y1129D01*
X1894Y1128D02*
X1921Y1128D01*
X2303Y1128D02*
X2365Y1128D01*
X1894Y1127D02*
X1922Y1127D01*
X2300Y1127D02*
X2362Y1127D01*
X1895Y1126D02*
X1922Y1126D01*
X2298Y1126D02*
X2360Y1126D01*
X1896Y1125D02*
X1923Y1125D01*
X2296Y1125D02*
X2357Y1125D01*
X1896Y1124D02*
X1923Y1124D01*
X2293Y1124D02*
X2355Y1124D01*
X1897Y1123D02*
X1924Y1123D01*
X2291Y1123D02*
X2352Y1123D01*
X1897Y1122D02*
X1924Y1122D01*
X2289Y1122D02*
X2350Y1122D01*
X1898Y1121D02*
X1925Y1121D01*
X2287Y1121D02*
X2347Y1121D01*
X1899Y1120D02*
X1926Y1120D01*
X2284Y1120D02*
X2344Y1120D01*
X1899Y1119D02*
X1926Y1119D01*
X2282Y1119D02*
X2342Y1119D01*
X1900Y1118D02*
X1927Y1118D01*
X2280Y1118D02*
X2339Y1118D01*
X1900Y1117D02*
X1927Y1117D01*
X2278Y1117D02*
X2337Y1117D01*
X1901Y1116D02*
X1928Y1116D01*
X2275Y1116D02*
X2335Y1116D01*
X1902Y1115D02*
X1928Y1115D01*
X2273Y1115D02*
X2332Y1115D01*
X1902Y1114D02*
X1929Y1114D01*
X2271Y1114D02*
X2330Y1114D01*
X1903Y1113D02*
X1929Y1113D01*
X2269Y1113D02*
X2327Y1113D01*
X1904Y1112D02*
X1930Y1112D01*
X2267Y1112D02*
X2325Y1112D01*
X1904Y1111D02*
X1931Y1111D01*
X2265Y1111D02*
X2322Y1111D01*
X1905Y1110D02*
X1931Y1110D01*
X2263Y1110D02*
X2320Y1110D01*
X1905Y1109D02*
X1932Y1109D01*
X2260Y1109D02*
X2318Y1109D01*
X919Y1108D02*
X928Y1108D01*
X1906Y1108D02*
X1932Y1108D01*
X2258Y1108D02*
X2315Y1108D01*
X917Y1107D02*
X929Y1107D01*
X1906Y1107D02*
X1933Y1107D01*
X2256Y1107D02*
X2313Y1107D01*
X916Y1106D02*
X931Y1106D01*
X1907Y1106D02*
X1933Y1106D01*
X2254Y1106D02*
X2311Y1106D01*
X915Y1105D02*
X932Y1105D01*
X1907Y1105D02*
X1933Y1105D01*
X2252Y1105D02*
X2308Y1105D01*
X914Y1104D02*
X933Y1104D01*
X1908Y1104D02*
X1934Y1104D01*
X2250Y1104D02*
X2306Y1104D01*
X914Y1103D02*
X933Y1103D01*
X1909Y1103D02*
X1934Y1103D01*
X2248Y1103D02*
X2304Y1103D01*
X913Y1102D02*
X934Y1102D01*
X1909Y1102D02*
X1935Y1102D01*
X2246Y1102D02*
X2302Y1102D01*
X913Y1101D02*
X934Y1101D01*
X1910Y1101D02*
X1935Y1101D01*
X2244Y1101D02*
X2299Y1101D01*
X912Y1100D02*
X934Y1100D01*
X1910Y1100D02*
X1936Y1100D01*
X2242Y1100D02*
X2297Y1100D01*
X912Y1099D02*
X935Y1099D01*
X1911Y1099D02*
X1936Y1099D01*
X2240Y1099D02*
X2295Y1099D01*
X912Y1098D02*
X935Y1098D01*
X1911Y1098D02*
X1937Y1098D01*
X2238Y1098D02*
X2293Y1098D01*
X912Y1097D02*
X935Y1097D01*
X1912Y1097D02*
X1937Y1097D01*
X2236Y1097D02*
X2290Y1097D01*
X912Y1096D02*
X935Y1096D01*
X1912Y1096D02*
X1938Y1096D01*
X2234Y1096D02*
X2288Y1096D01*
X912Y1095D02*
X935Y1095D01*
X1913Y1095D02*
X1938Y1095D01*
X2232Y1095D02*
X2286Y1095D01*
X912Y1094D02*
X935Y1094D01*
X1913Y1094D02*
X1938Y1094D01*
X2230Y1094D02*
X2284Y1094D01*
X912Y1093D02*
X935Y1093D01*
X1914Y1093D02*
X1939Y1093D01*
X2228Y1093D02*
X2282Y1093D01*
X912Y1092D02*
X935Y1092D01*
X1914Y1092D02*
X1939Y1092D01*
X2226Y1092D02*
X2279Y1092D01*
X912Y1091D02*
X935Y1091D01*
X1915Y1091D02*
X1940Y1091D01*
X2224Y1091D02*
X2277Y1091D01*
X912Y1090D02*
X935Y1090D01*
X1915Y1090D02*
X1940Y1090D01*
X2222Y1090D02*
X2275Y1090D01*
X912Y1089D02*
X935Y1089D01*
X1915Y1089D02*
X1940Y1089D01*
X2220Y1089D02*
X2273Y1089D01*
X911Y1088D02*
X935Y1088D01*
X1916Y1088D02*
X1941Y1088D01*
X2218Y1088D02*
X2271Y1088D01*
X911Y1087D02*
X934Y1087D01*
X1916Y1087D02*
X1941Y1087D01*
X2216Y1087D02*
X2269Y1087D01*
X911Y1086D02*
X934Y1086D01*
X1917Y1086D02*
X1942Y1086D01*
X2214Y1086D02*
X2267Y1086D01*
X911Y1085D02*
X934Y1085D01*
X1917Y1085D02*
X1942Y1085D01*
X2212Y1085D02*
X2264Y1085D01*
X911Y1084D02*
X934Y1084D01*
X1918Y1084D02*
X1942Y1084D01*
X2210Y1084D02*
X2262Y1084D01*
X911Y1083D02*
X934Y1083D01*
X1918Y1083D02*
X1943Y1083D01*
X2208Y1083D02*
X2260Y1083D01*
X911Y1082D02*
X934Y1082D01*
X1918Y1082D02*
X1943Y1082D01*
X2206Y1082D02*
X2258Y1082D01*
X911Y1081D02*
X934Y1081D01*
X1919Y1081D02*
X1943Y1081D01*
X2204Y1081D02*
X2256Y1081D01*
X911Y1080D02*
X934Y1080D01*
X1919Y1080D02*
X1943Y1080D01*
X2203Y1080D02*
X2254Y1080D01*
X911Y1079D02*
X934Y1079D01*
X1920Y1079D02*
X1944Y1079D01*
X2201Y1079D02*
X2252Y1079D01*
X911Y1078D02*
X934Y1078D01*
X1920Y1078D02*
X1944Y1078D01*
X2199Y1078D02*
X2250Y1078D01*
X911Y1077D02*
X934Y1077D01*
X1920Y1077D02*
X1944Y1077D01*
X2197Y1077D02*
X2248Y1077D01*
X911Y1076D02*
X934Y1076D01*
X1921Y1076D02*
X1945Y1076D01*
X2195Y1076D02*
X2246Y1076D01*
X911Y1075D02*
X934Y1075D01*
X1921Y1075D02*
X1945Y1075D01*
X2193Y1075D02*
X2244Y1075D01*
X911Y1074D02*
X934Y1074D01*
X1921Y1074D02*
X1945Y1074D01*
X2191Y1074D02*
X2242Y1074D01*
X911Y1073D02*
X934Y1073D01*
X1922Y1073D02*
X1945Y1073D01*
X2189Y1073D02*
X2240Y1073D01*
X911Y1072D02*
X934Y1072D01*
X1922Y1072D02*
X1946Y1072D01*
X2188Y1072D02*
X2238Y1072D01*
X911Y1071D02*
X934Y1071D01*
X1922Y1071D02*
X1946Y1071D01*
X2186Y1071D02*
X2236Y1071D01*
X911Y1070D02*
X934Y1070D01*
X1922Y1070D02*
X1946Y1070D01*
X2184Y1070D02*
X2234Y1070D01*
X911Y1069D02*
X934Y1069D01*
X1923Y1069D02*
X1946Y1069D01*
X2182Y1069D02*
X2232Y1069D01*
X911Y1068D02*
X934Y1068D01*
X1923Y1068D02*
X1946Y1068D01*
X2180Y1068D02*
X2230Y1068D01*
X911Y1067D02*
X934Y1067D01*
X1923Y1067D02*
X1947Y1067D01*
X2179Y1067D02*
X2228Y1067D01*
X910Y1066D02*
X934Y1066D01*
X1923Y1066D02*
X1947Y1066D01*
X2177Y1066D02*
X2226Y1066D01*
X910Y1065D02*
X933Y1065D01*
X1924Y1065D02*
X1947Y1065D01*
X2175Y1065D02*
X2224Y1065D01*
X910Y1064D02*
X933Y1064D01*
X1924Y1064D02*
X1947Y1064D01*
X2173Y1064D02*
X2223Y1064D01*
X910Y1063D02*
X933Y1063D01*
X1924Y1063D02*
X1947Y1063D01*
X2171Y1063D02*
X2221Y1063D01*
X910Y1062D02*
X933Y1062D01*
X1924Y1062D02*
X1947Y1062D01*
X2170Y1062D02*
X2219Y1062D01*
X910Y1061D02*
X933Y1061D01*
X1924Y1061D02*
X1947Y1061D01*
X2168Y1061D02*
X2217Y1061D01*
X910Y1060D02*
X933Y1060D01*
X1924Y1060D02*
X1948Y1060D01*
X2166Y1060D02*
X2215Y1060D01*
X910Y1059D02*
X933Y1059D01*
X1925Y1059D02*
X1948Y1059D01*
X2164Y1059D02*
X2213Y1059D01*
X910Y1058D02*
X933Y1058D01*
X1925Y1058D02*
X1948Y1058D01*
X2163Y1058D02*
X2211Y1058D01*
X910Y1057D02*
X933Y1057D01*
X1925Y1057D02*
X1948Y1057D01*
X2161Y1057D02*
X2209Y1057D01*
X910Y1056D02*
X933Y1056D01*
X1925Y1056D02*
X1948Y1056D01*
X2159Y1056D02*
X2207Y1056D01*
X910Y1055D02*
X933Y1055D01*
X1925Y1055D02*
X1948Y1055D01*
X2158Y1055D02*
X2206Y1055D01*
X910Y1054D02*
X933Y1054D01*
X1925Y1054D02*
X1948Y1054D01*
X2156Y1054D02*
X2204Y1054D01*
X910Y1053D02*
X933Y1053D01*
X1925Y1053D02*
X1948Y1053D01*
X2154Y1053D02*
X2202Y1053D01*
X910Y1052D02*
X933Y1052D01*
X1925Y1052D02*
X1948Y1052D01*
X2152Y1052D02*
X2200Y1052D01*
X910Y1051D02*
X933Y1051D01*
X1925Y1051D02*
X1948Y1051D01*
X2151Y1051D02*
X2198Y1051D01*
X910Y1050D02*
X933Y1050D01*
X1925Y1050D02*
X1948Y1050D01*
X2149Y1050D02*
X2196Y1050D01*
X910Y1049D02*
X933Y1049D01*
X1925Y1049D02*
X1948Y1049D01*
X2147Y1049D02*
X2194Y1049D01*
X910Y1048D02*
X933Y1048D01*
X1925Y1048D02*
X1948Y1048D01*
X2146Y1048D02*
X2193Y1048D01*
X910Y1047D02*
X933Y1047D01*
X1925Y1047D02*
X1948Y1047D01*
X2144Y1047D02*
X2191Y1047D01*
X910Y1046D02*
X933Y1046D01*
X1925Y1046D02*
X1948Y1046D01*
X2142Y1046D02*
X2189Y1046D01*
X910Y1045D02*
X933Y1045D01*
X1925Y1045D02*
X1948Y1045D01*
X2140Y1045D02*
X2187Y1045D01*
X910Y1044D02*
X933Y1044D01*
X1925Y1044D02*
X1948Y1044D01*
X2139Y1044D02*
X2186Y1044D01*
X910Y1043D02*
X933Y1043D01*
X1925Y1043D02*
X1948Y1043D01*
X2137Y1043D02*
X2184Y1043D01*
X910Y1042D02*
X933Y1042D01*
X1925Y1042D02*
X1948Y1042D01*
X2135Y1042D02*
X2182Y1042D01*
X910Y1041D02*
X933Y1041D01*
X1925Y1041D02*
X1948Y1041D01*
X2134Y1041D02*
X2180Y1041D01*
X910Y1040D02*
X933Y1040D01*
X1925Y1040D02*
X1948Y1040D01*
X2132Y1040D02*
X2178Y1040D01*
X909Y1039D02*
X932Y1039D01*
X1924Y1039D02*
X1947Y1039D01*
X2130Y1039D02*
X2177Y1039D01*
X909Y1038D02*
X932Y1038D01*
X1924Y1038D02*
X1947Y1038D01*
X2129Y1038D02*
X2175Y1038D01*
X909Y1037D02*
X932Y1037D01*
X1924Y1037D02*
X1947Y1037D01*
X2127Y1037D02*
X2173Y1037D01*
X909Y1036D02*
X932Y1036D01*
X1924Y1036D02*
X1947Y1036D01*
X2126Y1036D02*
X2172Y1036D01*
X909Y1035D02*
X932Y1035D01*
X1924Y1035D02*
X1947Y1035D01*
X2124Y1035D02*
X2170Y1035D01*
X909Y1034D02*
X932Y1034D01*
X1924Y1034D02*
X1947Y1034D01*
X2122Y1034D02*
X2168Y1034D01*
X909Y1033D02*
X932Y1033D01*
X1923Y1033D02*
X1947Y1033D01*
X2121Y1033D02*
X2166Y1033D01*
X909Y1032D02*
X932Y1032D01*
X1923Y1032D02*
X1946Y1032D01*
X2119Y1032D02*
X2165Y1032D01*
X909Y1031D02*
X932Y1031D01*
X1923Y1031D02*
X1946Y1031D01*
X2118Y1031D02*
X2163Y1031D01*
X909Y1030D02*
X932Y1030D01*
X1923Y1030D02*
X1946Y1030D01*
X2116Y1030D02*
X2161Y1030D01*
X909Y1029D02*
X932Y1029D01*
X1922Y1029D02*
X1946Y1029D01*
X2114Y1029D02*
X2160Y1029D01*
X909Y1028D02*
X932Y1028D01*
X1922Y1028D02*
X1946Y1028D01*
X2113Y1028D02*
X2158Y1028D01*
X909Y1027D02*
X932Y1027D01*
X1922Y1027D02*
X1945Y1027D01*
X2111Y1027D02*
X2156Y1027D01*
X909Y1026D02*
X932Y1026D01*
X1921Y1026D02*
X1945Y1026D01*
X2109Y1026D02*
X2154Y1026D01*
X909Y1025D02*
X932Y1025D01*
X1921Y1025D02*
X1945Y1025D01*
X2108Y1025D02*
X2153Y1025D01*
X909Y1024D02*
X932Y1024D01*
X1921Y1024D02*
X1945Y1024D01*
X2106Y1024D02*
X2151Y1024D01*
X909Y1023D02*
X932Y1023D01*
X1920Y1023D02*
X1944Y1023D01*
X2105Y1023D02*
X2149Y1023D01*
X909Y1022D02*
X932Y1022D01*
X1920Y1022D02*
X1944Y1022D01*
X2103Y1022D02*
X2148Y1022D01*
X909Y1021D02*
X932Y1021D01*
X1920Y1021D02*
X1944Y1021D01*
X2101Y1021D02*
X2146Y1021D01*
X909Y1020D02*
X932Y1020D01*
X1919Y1020D02*
X1944Y1020D01*
X2100Y1020D02*
X2144Y1020D01*
X909Y1019D02*
X932Y1019D01*
X1919Y1019D02*
X1943Y1019D01*
X2098Y1019D02*
X2143Y1019D01*
X909Y1018D02*
X932Y1018D01*
X1919Y1018D02*
X1943Y1018D01*
X2097Y1018D02*
X2141Y1018D01*
X909Y1017D02*
X932Y1017D01*
X1918Y1017D02*
X1943Y1017D01*
X2095Y1017D02*
X2139Y1017D01*
X909Y1016D02*
X932Y1016D01*
X1918Y1016D02*
X1942Y1016D01*
X2094Y1016D02*
X2138Y1016D01*
X909Y1015D02*
X932Y1015D01*
X1917Y1015D02*
X1942Y1015D01*
X2092Y1015D02*
X2136Y1015D01*
X909Y1014D02*
X932Y1014D01*
X1917Y1014D02*
X1942Y1014D01*
X2091Y1014D02*
X2135Y1014D01*
X909Y1013D02*
X932Y1013D01*
X1916Y1013D02*
X1941Y1013D01*
X2089Y1013D02*
X2133Y1013D01*
X909Y1012D02*
X932Y1012D01*
X1916Y1012D02*
X1941Y1012D01*
X2088Y1012D02*
X2131Y1012D01*
X909Y1011D02*
X932Y1011D01*
X1916Y1011D02*
X1941Y1011D01*
X2086Y1011D02*
X2130Y1011D01*
X909Y1010D02*
X932Y1010D01*
X1915Y1010D02*
X1940Y1010D01*
X2085Y1010D02*
X2128Y1010D01*
X909Y1009D02*
X932Y1009D01*
X1915Y1009D02*
X1940Y1009D01*
X2083Y1009D02*
X2127Y1009D01*
X909Y1008D02*
X932Y1008D01*
X1914Y1008D02*
X1939Y1008D01*
X2082Y1008D02*
X2125Y1008D01*
X909Y1007D02*
X932Y1007D01*
X1914Y1007D02*
X1939Y1007D01*
X2080Y1007D02*
X2123Y1007D01*
X909Y1006D02*
X932Y1006D01*
X1913Y1006D02*
X1939Y1006D01*
X2079Y1006D02*
X2122Y1006D01*
X909Y1005D02*
X932Y1005D01*
X1912Y1005D02*
X1938Y1005D01*
X2077Y1005D02*
X2120Y1005D01*
X909Y1004D02*
X932Y1004D01*
X1912Y1004D02*
X1938Y1004D01*
X2076Y1004D02*
X2119Y1004D01*
X909Y1003D02*
X932Y1003D01*
X1911Y1003D02*
X1937Y1003D01*
X2074Y1003D02*
X2117Y1003D01*
X909Y1002D02*
X932Y1002D01*
X1911Y1002D02*
X1937Y1002D01*
X2073Y1002D02*
X2115Y1002D01*
X909Y1001D02*
X932Y1001D01*
X1910Y1001D02*
X1936Y1001D01*
X2071Y1001D02*
X2114Y1001D01*
X909Y1000D02*
X932Y1000D01*
X1910Y1000D02*
X1936Y1000D01*
X2070Y1000D02*
X2112Y1000D01*
X909Y999D02*
X932Y999D01*
X1909Y999D02*
X1935Y999D01*
X2068Y999D02*
X2111Y999D01*
X909Y998D02*
X931Y998D01*
X1908Y998D02*
X1935Y998D01*
X2067Y998D02*
X2109Y998D01*
X908Y997D02*
X931Y997D01*
X1908Y997D02*
X1934Y997D01*
X2065Y997D02*
X2108Y997D01*
X908Y996D02*
X931Y996D01*
X1907Y996D02*
X1934Y996D01*
X2064Y996D02*
X2106Y996D01*
X908Y995D02*
X931Y995D01*
X1907Y995D02*
X1933Y995D01*
X2062Y995D02*
X2105Y995D01*
X908Y994D02*
X931Y994D01*
X1906Y994D02*
X1933Y994D01*
X2061Y994D02*
X2103Y994D01*
X908Y993D02*
X931Y993D01*
X1905Y993D02*
X1932Y993D01*
X2059Y993D02*
X2102Y993D01*
X908Y992D02*
X931Y992D01*
X1905Y992D02*
X1932Y992D01*
X2058Y992D02*
X2100Y992D01*
X908Y991D02*
X931Y991D01*
X1904Y991D02*
X1931Y991D01*
X2057Y991D02*
X2098Y991D01*
X908Y990D02*
X931Y990D01*
X1903Y990D02*
X1931Y990D01*
X2055Y990D02*
X2097Y990D01*
X908Y989D02*
X931Y989D01*
X1903Y989D02*
X1930Y989D01*
X2054Y989D02*
X2095Y989D01*
X908Y988D02*
X931Y988D01*
X1902Y988D02*
X1929Y988D01*
X2052Y988D02*
X2094Y988D01*
X908Y987D02*
X931Y987D01*
X1901Y987D02*
X1929Y987D01*
X2051Y987D02*
X2092Y987D01*
X908Y986D02*
X931Y986D01*
X1901Y986D02*
X1928Y986D01*
X2049Y986D02*
X2091Y986D01*
X908Y985D02*
X931Y985D01*
X1900Y985D02*
X1928Y985D01*
X2048Y985D02*
X2089Y985D01*
X908Y984D02*
X931Y984D01*
X1899Y984D02*
X1927Y984D01*
X2046Y984D02*
X2088Y984D01*
X908Y983D02*
X931Y983D01*
X1898Y983D02*
X1926Y983D01*
X2045Y983D02*
X2086Y983D01*
X908Y982D02*
X931Y982D01*
X1898Y982D02*
X1926Y982D01*
X2044Y982D02*
X2085Y982D01*
X908Y981D02*
X931Y981D01*
X1897Y981D02*
X1925Y981D01*
X2042Y981D02*
X2083Y981D01*
X908Y980D02*
X931Y980D01*
X1896Y980D02*
X1924Y980D01*
X2041Y980D02*
X2082Y980D01*
X908Y979D02*
X931Y979D01*
X1895Y979D02*
X1924Y979D01*
X2039Y979D02*
X2080Y979D01*
X908Y978D02*
X931Y978D01*
X1895Y978D02*
X1923Y978D01*
X2038Y978D02*
X2079Y978D01*
X908Y977D02*
X931Y977D01*
X1894Y977D02*
X1922Y977D01*
X2037Y977D02*
X2078Y977D01*
X908Y976D02*
X931Y976D01*
X1893Y976D02*
X1922Y976D01*
X2035Y976D02*
X2076Y976D01*
X908Y975D02*
X931Y975D01*
X1892Y975D02*
X1921Y975D01*
X2034Y975D02*
X2075Y975D01*
X908Y974D02*
X931Y974D01*
X1891Y974D02*
X1920Y974D01*
X2033Y974D02*
X2073Y974D01*
X908Y973D02*
X931Y973D01*
X1891Y973D02*
X1920Y973D01*
X2031Y973D02*
X2072Y973D01*
X908Y972D02*
X931Y972D01*
X1890Y972D02*
X1919Y972D01*
X2030Y972D02*
X2070Y972D01*
X908Y971D02*
X931Y971D01*
X1889Y971D02*
X1918Y971D01*
X2028Y971D02*
X2069Y971D01*
X908Y970D02*
X931Y970D01*
X1888Y970D02*
X1918Y970D01*
X2027Y970D02*
X2067Y970D01*
X908Y969D02*
X931Y969D01*
X1887Y969D02*
X1917Y969D01*
X2026Y969D02*
X2066Y969D01*
X908Y968D02*
X931Y968D01*
X1886Y968D02*
X1916Y968D01*
X2024Y968D02*
X2064Y968D01*
X908Y967D02*
X931Y967D01*
X1886Y967D02*
X1915Y967D01*
X2023Y967D02*
X2063Y967D01*
X908Y966D02*
X931Y966D01*
X1885Y966D02*
X1915Y966D01*
X2021Y966D02*
X2062Y966D01*
X908Y965D02*
X931Y965D01*
X1884Y965D02*
X1914Y965D01*
X2020Y965D02*
X2060Y965D01*
X908Y964D02*
X931Y964D01*
X1883Y964D02*
X1913Y964D01*
X2019Y964D02*
X2059Y964D01*
X908Y963D02*
X931Y963D01*
X1882Y963D02*
X1912Y963D01*
X2017Y963D02*
X2057Y963D01*
X908Y962D02*
X931Y962D01*
X1881Y962D02*
X1911Y962D01*
X2016Y962D02*
X2056Y962D01*
X908Y961D02*
X931Y961D01*
X1880Y961D02*
X1911Y961D01*
X2015Y961D02*
X2055Y961D01*
X908Y960D02*
X931Y960D01*
X1879Y960D02*
X1910Y960D01*
X2013Y960D02*
X2053Y960D01*
X908Y959D02*
X931Y959D01*
X1879Y959D02*
X1909Y959D01*
X2012Y959D02*
X2052Y959D01*
X908Y958D02*
X931Y958D01*
X1878Y958D02*
X1908Y958D01*
X2011Y958D02*
X2050Y958D01*
X908Y957D02*
X931Y957D01*
X1877Y957D02*
X1907Y957D01*
X2009Y957D02*
X2049Y957D01*
X908Y956D02*
X931Y956D01*
X1876Y956D02*
X1907Y956D01*
X2008Y956D02*
X2048Y956D01*
X908Y955D02*
X931Y955D01*
X1875Y955D02*
X1906Y955D01*
X2007Y955D02*
X2046Y955D01*
X908Y954D02*
X931Y954D01*
X1874Y954D02*
X1905Y954D01*
X2005Y954D02*
X2045Y954D01*
X908Y953D02*
X931Y953D01*
X1873Y953D02*
X1904Y953D01*
X2004Y953D02*
X2043Y953D01*
X908Y952D02*
X931Y952D01*
X1872Y952D02*
X1903Y952D01*
X2003Y952D02*
X2042Y952D01*
X908Y951D02*
X931Y951D01*
X1871Y951D02*
X1902Y951D01*
X2002Y951D02*
X2041Y951D01*
X908Y950D02*
X931Y950D01*
X1870Y950D02*
X1902Y950D01*
X2000Y950D02*
X2039Y950D01*
X908Y949D02*
X931Y949D01*
X1869Y949D02*
X1901Y949D01*
X1999Y949D02*
X2038Y949D01*
X908Y948D02*
X931Y948D01*
X1868Y948D02*
X1900Y948D01*
X1998Y948D02*
X2037Y948D01*
X908Y947D02*
X931Y947D01*
X1867Y947D02*
X1899Y947D01*
X1996Y947D02*
X2035Y947D01*
X908Y946D02*
X931Y946D01*
X1866Y946D02*
X1898Y946D01*
X1995Y946D02*
X2034Y946D01*
X908Y945D02*
X931Y945D01*
X1865Y945D02*
X1897Y945D01*
X1994Y945D02*
X2032Y945D01*
X908Y944D02*
X931Y944D01*
X1864Y944D02*
X1896Y944D01*
X1992Y944D02*
X2031Y944D01*
X908Y943D02*
X931Y943D01*
X1863Y943D02*
X1895Y943D01*
X1991Y943D02*
X2030Y943D01*
X908Y942D02*
X931Y942D01*
X1862Y942D02*
X1894Y942D01*
X1990Y942D02*
X2028Y942D01*
X908Y941D02*
X931Y941D01*
X1861Y941D02*
X1894Y941D01*
X1989Y941D02*
X2027Y941D01*
X908Y940D02*
X931Y940D01*
X1860Y940D02*
X1893Y940D01*
X1987Y940D02*
X2026Y940D01*
X908Y939D02*
X931Y939D01*
X1859Y939D02*
X1892Y939D01*
X1986Y939D02*
X2024Y939D01*
X908Y938D02*
X931Y938D01*
X1858Y938D02*
X1891Y938D01*
X1985Y938D02*
X2023Y938D01*
X908Y937D02*
X931Y937D01*
X1857Y937D02*
X1890Y937D01*
X1983Y937D02*
X2022Y937D01*
X908Y936D02*
X931Y936D01*
X1856Y936D02*
X1889Y936D01*
X1982Y936D02*
X2020Y936D01*
X908Y935D02*
X931Y935D01*
X1855Y935D02*
X1888Y935D01*
X1981Y935D02*
X2019Y935D01*
X908Y934D02*
X931Y934D01*
X1854Y934D02*
X1887Y934D01*
X1980Y934D02*
X2018Y934D01*
X908Y933D02*
X931Y933D01*
X1853Y933D02*
X1886Y933D01*
X1978Y933D02*
X2016Y933D01*
X908Y932D02*
X931Y932D01*
X1852Y932D02*
X1885Y932D01*
X1977Y932D02*
X2015Y932D01*
X908Y931D02*
X931Y931D01*
X1851Y931D02*
X1884Y931D01*
X1976Y931D02*
X2014Y931D01*
X908Y930D02*
X931Y930D01*
X1850Y930D02*
X1883Y930D01*
X1975Y930D02*
X2012Y930D01*
X908Y929D02*
X931Y929D01*
X1849Y929D02*
X1882Y929D01*
X1973Y929D02*
X2011Y929D01*
X908Y928D02*
X931Y928D01*
X1848Y928D02*
X1881Y928D01*
X1972Y928D02*
X2010Y928D01*
X908Y927D02*
X931Y927D01*
X1847Y927D02*
X1880Y927D01*
X1971Y927D02*
X2009Y927D01*
X908Y926D02*
X931Y926D01*
X1845Y926D02*
X1879Y926D01*
X1970Y926D02*
X2007Y926D01*
X908Y925D02*
X931Y925D01*
X1844Y925D02*
X1878Y925D01*
X1968Y925D02*
X2006Y925D01*
X908Y924D02*
X931Y924D01*
X1843Y924D02*
X1877Y924D01*
X1967Y924D02*
X2005Y924D01*
X908Y923D02*
X931Y923D01*
X1842Y923D02*
X1876Y923D01*
X1966Y923D02*
X2003Y923D01*
X909Y922D02*
X931Y922D01*
X1841Y922D02*
X1875Y922D01*
X1965Y922D02*
X2002Y922D01*
X909Y921D02*
X932Y921D01*
X1840Y921D02*
X1874Y921D01*
X1964Y921D02*
X2001Y921D01*
X909Y920D02*
X932Y920D01*
X1839Y920D02*
X1873Y920D01*
X1962Y920D02*
X2000Y920D01*
X909Y919D02*
X932Y919D01*
X1838Y919D02*
X1872Y919D01*
X1961Y919D02*
X1998Y919D01*
X909Y918D02*
X932Y918D01*
X1837Y918D02*
X1871Y918D01*
X1960Y918D02*
X1997Y918D01*
X909Y917D02*
X932Y917D01*
X1835Y917D02*
X1870Y917D01*
X1959Y917D02*
X1996Y917D01*
X909Y916D02*
X932Y916D01*
X1834Y916D02*
X1869Y916D01*
X1957Y916D02*
X1995Y916D01*
X909Y915D02*
X932Y915D01*
X1833Y915D02*
X1868Y915D01*
X1956Y915D02*
X1993Y915D01*
X909Y914D02*
X932Y914D01*
X1832Y914D02*
X1867Y914D01*
X1955Y914D02*
X1992Y914D01*
X909Y913D02*
X932Y913D01*
X1831Y913D02*
X1866Y913D01*
X1954Y913D02*
X1991Y913D01*
X909Y912D02*
X932Y912D01*
X1830Y912D02*
X1865Y912D01*
X1953Y912D02*
X1989Y912D01*
X909Y911D02*
X932Y911D01*
X1829Y911D02*
X1864Y911D01*
X1951Y911D02*
X1988Y911D01*
X909Y910D02*
X932Y910D01*
X1828Y910D02*
X1863Y910D01*
X1950Y910D02*
X1987Y910D01*
X909Y909D02*
X932Y909D01*
X1826Y909D02*
X1861Y909D01*
X1949Y909D02*
X1986Y909D01*
X909Y908D02*
X932Y908D01*
X1825Y908D02*
X1860Y908D01*
X1948Y908D02*
X1985Y908D01*
X909Y907D02*
X932Y907D01*
X1824Y907D02*
X1859Y907D01*
X1947Y907D02*
X1983Y907D01*
X909Y906D02*
X932Y906D01*
X1823Y906D02*
X1858Y906D01*
X1945Y906D02*
X1982Y906D01*
X909Y905D02*
X932Y905D01*
X1822Y905D02*
X1857Y905D01*
X1944Y905D02*
X1981Y905D01*
X909Y904D02*
X932Y904D01*
X1820Y904D02*
X1856Y904D01*
X1943Y904D02*
X1980Y904D01*
X909Y903D02*
X932Y903D01*
X1819Y903D02*
X1855Y903D01*
X1942Y903D02*
X1978Y903D01*
X909Y902D02*
X932Y902D01*
X1818Y902D02*
X1854Y902D01*
X1941Y902D02*
X1977Y902D01*
X909Y901D02*
X932Y901D01*
X1817Y901D02*
X1852Y901D01*
X1940Y901D02*
X1976Y901D01*
X909Y900D02*
X932Y900D01*
X1816Y900D02*
X1851Y900D01*
X1938Y900D02*
X1975Y900D01*
X909Y899D02*
X932Y899D01*
X1815Y899D02*
X1850Y899D01*
X1937Y899D02*
X1973Y899D01*
X909Y898D02*
X932Y898D01*
X1813Y898D02*
X1849Y898D01*
X1936Y898D02*
X1972Y898D01*
X909Y897D02*
X932Y897D01*
X1812Y897D02*
X1848Y897D01*
X1935Y897D02*
X1971Y897D01*
X909Y896D02*
X932Y896D01*
X1811Y896D02*
X1847Y896D01*
X1934Y896D02*
X1970Y896D01*
X909Y895D02*
X932Y895D01*
X1810Y895D02*
X1846Y895D01*
X1933Y895D02*
X1969Y895D01*
X909Y894D02*
X932Y894D01*
X1809Y894D02*
X1845Y894D01*
X1931Y894D02*
X1967Y894D01*
X909Y893D02*
X932Y893D01*
X1807Y893D02*
X1844Y893D01*
X1930Y893D02*
X1966Y893D01*
X909Y892D02*
X932Y892D01*
X1806Y892D02*
X1842Y892D01*
X1929Y892D02*
X1965Y892D01*
X909Y891D02*
X932Y891D01*
X1805Y891D02*
X1841Y891D01*
X1928Y891D02*
X1964Y891D01*
X909Y890D02*
X932Y890D01*
X1804Y890D02*
X1840Y890D01*
X1927Y890D02*
X1963Y890D01*
X909Y889D02*
X932Y889D01*
X1803Y889D02*
X1839Y889D01*
X1926Y889D02*
X1961Y889D01*
X909Y888D02*
X932Y888D01*
X1802Y888D02*
X1838Y888D01*
X1925Y888D02*
X1960Y888D01*
X909Y887D02*
X932Y887D01*
X1801Y887D02*
X1837Y887D01*
X1923Y887D02*
X1959Y887D01*
X909Y886D02*
X932Y886D01*
X1801Y886D02*
X1835Y886D01*
X1922Y886D02*
X1958Y886D01*
X909Y885D02*
X932Y885D01*
X1801Y885D02*
X1834Y885D01*
X1921Y885D02*
X1957Y885D01*
X909Y884D02*
X932Y884D01*
X1800Y884D02*
X1833Y884D01*
X1920Y884D02*
X1956Y884D01*
X910Y883D02*
X933Y883D01*
X1800Y883D02*
X1832Y883D01*
X1919Y883D02*
X1954Y883D01*
X910Y882D02*
X933Y882D01*
X1800Y882D02*
X1831Y882D01*
X1918Y882D02*
X1953Y882D01*
X910Y881D02*
X933Y881D01*
X1800Y881D02*
X1829Y881D01*
X1917Y881D02*
X1952Y881D01*
X910Y880D02*
X933Y880D01*
X1800Y880D02*
X1828Y880D01*
X1915Y880D02*
X1951Y880D01*
X910Y879D02*
X933Y879D01*
X1800Y879D02*
X1827Y879D01*
X1914Y879D02*
X1950Y879D01*
X910Y878D02*
X933Y878D01*
X1800Y878D02*
X1826Y878D01*
X1913Y878D02*
X1949Y878D01*
X910Y877D02*
X933Y877D01*
X1801Y877D02*
X1825Y877D01*
X1912Y877D02*
X1947Y877D01*
X910Y876D02*
X933Y876D01*
X1801Y876D02*
X1823Y876D01*
X1911Y876D02*
X1946Y876D01*
X910Y875D02*
X933Y875D01*
X1802Y875D02*
X1822Y875D01*
X1910Y875D02*
X1945Y875D01*
X910Y874D02*
X933Y874D01*
X1802Y874D02*
X1821Y874D01*
X1909Y874D02*
X1944Y874D01*
X910Y873D02*
X933Y873D01*
X1803Y873D02*
X1820Y873D01*
X1908Y873D02*
X1943Y873D01*
X910Y872D02*
X933Y872D01*
X1804Y872D02*
X1819Y872D01*
X1907Y872D02*
X1942Y872D01*
X910Y871D02*
X933Y871D01*
X1805Y871D02*
X1817Y871D01*
X1906Y871D02*
X1941Y871D01*
X910Y870D02*
X933Y870D01*
X1807Y870D02*
X1815Y870D01*
X1904Y870D02*
X1939Y870D01*
X910Y869D02*
X933Y869D01*
X1903Y869D02*
X1938Y869D01*
X910Y868D02*
X933Y868D01*
X1902Y868D02*
X1937Y868D01*
X910Y867D02*
X933Y867D01*
X1901Y867D02*
X1936Y867D01*
X910Y866D02*
X933Y866D01*
X1900Y866D02*
X1935Y866D01*
X910Y865D02*
X933Y865D01*
X1899Y865D02*
X1934Y865D01*
X910Y864D02*
X933Y864D01*
X1898Y864D02*
X1933Y864D01*
X910Y863D02*
X933Y863D01*
X1897Y863D02*
X1931Y863D01*
X910Y862D02*
X933Y862D01*
X1896Y862D02*
X1930Y862D01*
X910Y861D02*
X933Y861D01*
X1895Y861D02*
X1929Y861D01*
X910Y860D02*
X933Y860D01*
X1894Y860D02*
X1928Y860D01*
X911Y859D02*
X934Y859D01*
X1893Y859D02*
X1927Y859D01*
X911Y858D02*
X934Y858D01*
X1892Y858D02*
X1926Y858D01*
X911Y857D02*
X934Y857D01*
X1891Y857D02*
X1925Y857D01*
X911Y856D02*
X934Y856D01*
X1889Y856D02*
X1924Y856D01*
X911Y855D02*
X934Y855D01*
X1888Y855D02*
X1923Y855D01*
X911Y854D02*
X934Y854D01*
X1887Y854D02*
X1922Y854D01*
X911Y853D02*
X934Y853D01*
X1886Y853D02*
X1920Y853D01*
X911Y852D02*
X934Y852D01*
X1885Y852D02*
X1919Y852D01*
X911Y851D02*
X934Y851D01*
X1884Y851D02*
X1918Y851D01*
X911Y850D02*
X934Y850D01*
X1883Y850D02*
X1917Y850D01*
X911Y849D02*
X934Y849D01*
X1882Y849D02*
X1916Y849D01*
X911Y848D02*
X934Y848D01*
X1881Y848D02*
X1915Y848D01*
X911Y847D02*
X934Y847D01*
X1880Y847D02*
X1914Y847D01*
X911Y846D02*
X934Y846D01*
X1879Y846D02*
X1913Y846D01*
X911Y845D02*
X934Y845D01*
X1878Y845D02*
X1912Y845D01*
X911Y844D02*
X934Y844D01*
X1877Y844D02*
X1911Y844D01*
X911Y843D02*
X934Y843D01*
X1876Y843D02*
X1910Y843D01*
X911Y842D02*
X934Y842D01*
X1875Y842D02*
X1909Y842D01*
X911Y841D02*
X934Y841D01*
X1874Y841D02*
X1908Y841D01*
X912Y840D02*
X934Y840D01*
X1873Y840D02*
X1906Y840D01*
X912Y839D02*
X935Y839D01*
X1872Y839D02*
X1905Y839D01*
X912Y838D02*
X935Y838D01*
X1871Y838D02*
X1904Y838D01*
X912Y837D02*
X935Y837D01*
X1870Y837D02*
X1903Y837D01*
X912Y836D02*
X935Y836D01*
X1869Y836D02*
X1902Y836D01*
X912Y835D02*
X935Y835D01*
X1868Y835D02*
X1901Y835D01*
X912Y834D02*
X935Y834D01*
X1867Y834D02*
X1900Y834D01*
X912Y833D02*
X935Y833D01*
X1866Y833D02*
X1899Y833D01*
X912Y832D02*
X935Y832D01*
X1865Y832D02*
X1898Y832D01*
X912Y831D02*
X935Y831D01*
X1864Y831D02*
X1897Y831D01*
X912Y830D02*
X935Y830D01*
X1863Y830D02*
X1896Y830D01*
X912Y829D02*
X935Y829D01*
X1862Y829D02*
X1895Y829D01*
X912Y828D02*
X935Y828D01*
X1861Y828D02*
X1894Y828D01*
X912Y827D02*
X935Y827D01*
X1860Y827D02*
X1893Y827D01*
X912Y826D02*
X935Y826D01*
X1859Y826D02*
X1892Y826D01*
X912Y825D02*
X935Y825D01*
X1858Y825D02*
X1891Y825D01*
X912Y824D02*
X935Y824D01*
X1857Y824D02*
X1890Y824D01*
X913Y823D02*
X936Y823D01*
X1857Y823D02*
X1889Y823D01*
X913Y822D02*
X936Y822D01*
X1856Y822D02*
X1888Y822D01*
X913Y821D02*
X936Y821D01*
X1855Y821D02*
X1887Y821D01*
X913Y820D02*
X936Y820D01*
X1854Y820D02*
X1886Y820D01*
X913Y819D02*
X936Y819D01*
X1853Y819D02*
X1885Y819D01*
X913Y818D02*
X936Y818D01*
X1852Y818D02*
X1884Y818D01*
X913Y817D02*
X936Y817D01*
X1851Y817D02*
X1883Y817D01*
X913Y816D02*
X936Y816D01*
X1850Y816D02*
X1882Y816D01*
X913Y815D02*
X936Y815D01*
X1849Y815D02*
X1881Y815D01*
X913Y814D02*
X936Y814D01*
X1849Y814D02*
X1880Y814D01*
X913Y813D02*
X936Y813D01*
X1849Y813D02*
X1879Y813D01*
X913Y812D02*
X936Y812D01*
X1848Y812D02*
X1878Y812D01*
X913Y811D02*
X936Y811D01*
X1848Y811D02*
X1877Y811D01*
X913Y810D02*
X936Y810D01*
X1848Y810D02*
X1876Y810D01*
X913Y809D02*
X936Y809D01*
X1848Y809D02*
X1875Y809D01*
X914Y808D02*
X937Y808D01*
X1848Y808D02*
X1874Y808D01*
X914Y807D02*
X937Y807D01*
X1848Y807D02*
X1873Y807D01*
X914Y806D02*
X937Y806D01*
X1848Y806D02*
X1872Y806D01*
X914Y805D02*
X937Y805D01*
X1849Y805D02*
X1872Y805D01*
X914Y804D02*
X937Y804D01*
X1849Y804D02*
X1871Y804D01*
X914Y803D02*
X937Y803D01*
X1850Y803D02*
X1870Y803D01*
X914Y802D02*
X937Y802D01*
X1850Y802D02*
X1869Y802D01*
X914Y801D02*
X937Y801D01*
X1851Y801D02*
X1868Y801D01*
X914Y800D02*
X937Y800D01*
X1852Y800D02*
X1867Y800D01*
X914Y799D02*
X937Y799D01*
X1853Y799D02*
X1865Y799D01*
X914Y798D02*
X937Y798D01*
X1855Y798D02*
X1863Y798D01*
X914Y797D02*
X937Y797D01*
X914Y796D02*
X937Y796D01*
X915Y795D02*
X938Y795D01*
X915Y794D02*
X938Y794D01*
X915Y793D02*
X938Y793D01*
X915Y792D02*
X938Y792D01*
X915Y791D02*
X938Y791D01*
X915Y790D02*
X938Y790D01*
X915Y789D02*
X938Y789D01*
X915Y788D02*
X938Y788D01*
X915Y787D02*
X938Y787D01*
X915Y786D02*
X938Y786D01*
X915Y785D02*
X938Y785D01*
X915Y784D02*
X938Y784D01*
X916Y783D02*
X939Y783D01*
X916Y782D02*
X939Y782D01*
X916Y781D02*
X939Y781D01*
X916Y780D02*
X939Y780D01*
X916Y779D02*
X939Y779D01*
X916Y778D02*
X939Y778D01*
X916Y777D02*
X939Y777D01*
X916Y776D02*
X939Y776D01*
X916Y775D02*
X939Y775D01*
X916Y774D02*
X939Y774D01*
X916Y773D02*
X939Y773D01*
X917Y772D02*
X940Y772D01*
X917Y771D02*
X940Y771D01*
X917Y770D02*
X940Y770D01*
X917Y769D02*
X940Y769D01*
X917Y768D02*
X940Y768D01*
X917Y767D02*
X940Y767D01*
X917Y766D02*
X940Y766D01*
X917Y765D02*
X940Y765D01*
X917Y764D02*
X940Y764D01*
X917Y763D02*
X940Y763D01*
X917Y762D02*
X941Y762D01*
X918Y761D02*
X941Y761D01*
X918Y760D02*
X941Y760D01*
X918Y759D02*
X941Y759D01*
X918Y758D02*
X941Y758D01*
X918Y757D02*
X941Y757D01*
X918Y756D02*
X941Y756D01*
X918Y755D02*
X941Y755D01*
X918Y754D02*
X941Y754D01*
X918Y753D02*
X941Y753D01*
X918Y752D02*
X942Y752D01*
X919Y751D02*
X942Y751D01*
X919Y750D02*
X942Y750D01*
X919Y749D02*
X942Y749D01*
X919Y748D02*
X942Y748D01*
X919Y747D02*
X942Y747D01*
X919Y746D02*
X942Y746D01*
X919Y745D02*
X942Y745D01*
X919Y744D02*
X942Y744D01*
X919Y743D02*
X943Y743D01*
X920Y742D02*
X943Y742D01*
X920Y741D02*
X943Y741D01*
X920Y740D02*
X943Y740D01*
X920Y739D02*
X943Y739D01*
X920Y738D02*
X943Y738D01*
X920Y737D02*
X943Y737D01*
X920Y736D02*
X943Y736D01*
X920Y735D02*
X943Y735D01*
X920Y734D02*
X944Y734D01*
X921Y733D02*
X944Y733D01*
X921Y732D02*
X944Y732D01*
X921Y731D02*
X944Y731D01*
X921Y730D02*
X944Y730D01*
X921Y729D02*
X944Y729D01*
X921Y728D02*
X944Y728D01*
X921Y727D02*
X944Y727D01*
X921Y726D02*
X944Y726D01*
X921Y725D02*
X945Y725D01*
X922Y724D02*
X945Y724D01*
X922Y723D02*
X945Y723D01*
X922Y722D02*
X945Y722D01*
X922Y721D02*
X945Y721D01*
X922Y720D02*
X945Y720D01*
X922Y719D02*
X945Y719D01*
X922Y718D02*
X945Y718D01*
X922Y717D02*
X946Y717D01*
X923Y716D02*
X946Y716D01*
X923Y715D02*
X946Y715D01*
X923Y714D02*
X946Y714D01*
X923Y713D02*
X946Y713D01*
X923Y712D02*
X946Y712D01*
X923Y711D02*
X946Y711D01*
X923Y710D02*
X947Y710D01*
X923Y709D02*
X947Y709D01*
X924Y708D02*
X947Y708D01*
X924Y707D02*
X947Y707D01*
X924Y706D02*
X947Y706D01*
X924Y705D02*
X947Y705D01*
X924Y704D02*
X947Y704D01*
X924Y703D02*
X947Y703D01*
X924Y702D02*
X948Y702D01*
X925Y701D02*
X948Y701D01*
X925Y700D02*
X948Y700D01*
X925Y699D02*
X948Y699D01*
X925Y698D02*
X948Y698D01*
X925Y697D02*
X948Y697D01*
X925Y696D02*
X948Y696D01*
X925Y695D02*
X949Y695D01*
X926Y694D02*
X949Y694D01*
X926Y693D02*
X949Y693D01*
X926Y692D02*
X949Y692D01*
X926Y691D02*
X949Y691D01*
X926Y690D02*
X949Y690D01*
X926Y689D02*
X949Y689D01*
X926Y688D02*
X950Y688D01*
X926Y687D02*
X950Y687D01*
X927Y686D02*
X950Y686D01*
X927Y685D02*
X950Y685D01*
X927Y684D02*
X950Y684D01*
X927Y683D02*
X950Y683D01*
X927Y682D02*
X950Y682D01*
X927Y681D02*
X951Y681D01*
X928Y680D02*
X951Y680D01*
X928Y679D02*
X951Y679D01*
X928Y678D02*
X951Y678D01*
X928Y677D02*
X951Y677D01*
X928Y676D02*
X951Y676D01*
X928Y675D02*
X952Y675D01*
X928Y674D02*
X952Y674D01*
X929Y673D02*
X952Y673D01*
X929Y672D02*
X952Y672D01*
X929Y671D02*
X952Y671D01*
X929Y670D02*
X952Y670D01*
X929Y669D02*
X952Y669D01*
X929Y668D02*
X953Y668D01*
X930Y667D02*
X953Y667D01*
X930Y666D02*
X953Y666D01*
X930Y665D02*
X953Y665D01*
X930Y664D02*
X953Y664D01*
X930Y663D02*
X953Y663D01*
X930Y662D02*
X954Y662D01*
X930Y661D02*
X954Y661D01*
X931Y660D02*
X954Y660D01*
X931Y659D02*
X954Y659D01*
X931Y658D02*
X954Y658D01*
X931Y657D02*
X954Y657D01*
X931Y656D02*
X955Y656D01*
X931Y655D02*
X955Y655D01*
X932Y654D02*
X955Y654D01*
X932Y653D02*
X955Y653D01*
X932Y652D02*
X955Y652D01*
X932Y651D02*
X955Y651D01*
X932Y650D02*
X956Y650D01*
X932Y649D02*
X956Y649D01*
X933Y648D02*
X956Y648D01*
X933Y647D02*
X956Y647D01*
X933Y646D02*
X956Y646D01*
X933Y645D02*
X956Y645D01*
X933Y644D02*
X957Y644D01*
X934Y643D02*
X957Y643D01*
X934Y642D02*
X957Y642D01*
X934Y641D02*
X957Y641D01*
X934Y640D02*
X957Y640D01*
X934Y639D02*
X958Y639D01*
X934Y638D02*
X958Y638D01*
X935Y637D02*
X958Y637D01*
X935Y636D02*
X958Y636D01*
X935Y635D02*
X958Y635D01*
X935Y634D02*
X958Y634D01*
X935Y633D02*
X959Y633D01*
X935Y632D02*
X959Y632D01*
X936Y631D02*
X959Y631D01*
X936Y630D02*
X959Y630D01*
X936Y629D02*
X959Y629D01*
X936Y628D02*
X960Y628D01*
X936Y627D02*
X960Y627D01*
X937Y626D02*
X960Y626D01*
X937Y625D02*
X960Y625D01*
X937Y624D02*
X960Y624D01*
X937Y623D02*
X961Y623D01*
X937Y622D02*
X961Y622D01*
X938Y621D02*
X961Y621D01*
X938Y620D02*
X961Y620D01*
X938Y619D02*
X961Y619D01*
X938Y618D02*
X962Y618D01*
X938Y617D02*
X962Y617D01*
X938Y616D02*
X962Y616D01*
X939Y615D02*
X962Y615D01*
X939Y614D02*
X962Y614D01*
X939Y613D02*
X962Y613D01*
X939Y612D02*
X963Y612D01*
X939Y611D02*
X963Y611D01*
X940Y610D02*
X963Y610D01*
X940Y609D02*
X963Y609D01*
X940Y608D02*
X964Y608D01*
X940Y607D02*
X964Y607D01*
X940Y606D02*
X964Y606D01*
X941Y605D02*
X964Y605D01*
X941Y604D02*
X964Y604D01*
X941Y603D02*
X965Y603D01*
X941Y602D02*
X965Y602D01*
X942Y601D02*
X965Y601D01*
X942Y600D02*
X965Y600D01*
X942Y599D02*
X965Y599D01*
X942Y598D02*
X966Y598D01*
X942Y597D02*
X966Y597D01*
X943Y596D02*
X966Y596D01*
X943Y595D02*
X966Y595D01*
X943Y594D02*
X967Y594D01*
X943Y593D02*
X967Y593D01*
X943Y592D02*
X967Y592D01*
X944Y591D02*
X967Y591D01*
X944Y590D02*
X967Y590D01*
X944Y589D02*
X968Y589D01*
X944Y588D02*
X968Y588D01*
X944Y587D02*
X968Y587D01*
X945Y586D02*
X968Y586D01*
X945Y585D02*
X969Y585D01*
X945Y584D02*
X969Y584D01*
X945Y583D02*
X969Y583D01*
X946Y582D02*
X969Y582D01*
X946Y581D02*
X969Y581D01*
X946Y580D02*
X970Y580D01*
X946Y579D02*
X970Y579D01*
X947Y578D02*
X970Y578D01*
X947Y577D02*
X970Y577D01*
X947Y576D02*
X971Y576D01*
X947Y575D02*
X971Y575D01*
X947Y574D02*
X971Y574D01*
X948Y573D02*
X971Y573D01*
X948Y572D02*
X972Y572D01*
X948Y571D02*
X972Y571D01*
X948Y570D02*
X972Y570D01*
X949Y569D02*
X972Y569D01*
X949Y568D02*
X972Y568D01*
X949Y567D02*
X973Y567D01*
X949Y566D02*
X973Y566D01*
X950Y565D02*
X973Y565D01*
X950Y564D02*
X973Y564D01*
X950Y563D02*
X974Y563D01*
X950Y562D02*
X974Y562D01*
X950Y561D02*
X974Y561D01*
X951Y560D02*
X974Y560D01*
X951Y559D02*
X975Y559D01*
X951Y558D02*
X975Y558D01*
X951Y557D02*
X975Y557D01*
X952Y556D02*
X975Y556D01*
X952Y555D02*
X976Y555D01*
X952Y554D02*
X976Y554D01*
X953Y553D02*
X976Y553D01*
X953Y552D02*
X977Y552D01*
X953Y551D02*
X977Y551D01*
X953Y550D02*
X977Y550D01*
X954Y549D02*
X977Y549D01*
X954Y548D02*
X978Y548D01*
X954Y547D02*
X978Y547D01*
X954Y546D02*
X978Y546D01*
X955Y545D02*
X978Y545D01*
X955Y544D02*
X979Y544D01*
X955Y543D02*
X979Y543D01*
X955Y542D02*
X979Y542D01*
X956Y541D02*
X979Y541D01*
X956Y540D02*
X980Y540D01*
X956Y539D02*
X980Y539D01*
X956Y538D02*
X980Y538D01*
X957Y537D02*
X981Y537D01*
X957Y536D02*
X981Y536D01*
X957Y535D02*
X981Y535D01*
X957Y534D02*
X981Y534D01*
X958Y533D02*
X982Y533D01*
X958Y532D02*
X982Y532D01*
X958Y531D02*
X982Y531D01*
X959Y530D02*
X982Y530D01*
X959Y529D02*
X983Y529D01*
X959Y528D02*
X983Y528D01*
X959Y527D02*
X983Y527D01*
X960Y526D02*
X984Y526D01*
X960Y525D02*
X984Y525D01*
X960Y524D02*
X984Y524D01*
X960Y523D02*
X984Y523D01*
X961Y522D02*
X985Y522D01*
X961Y521D02*
X985Y521D01*
X961Y520D02*
X985Y520D01*
X962Y519D02*
X986Y519D01*
X962Y518D02*
X986Y518D01*
X962Y517D02*
X986Y517D01*
X963Y516D02*
X987Y516D01*
X963Y515D02*
X987Y515D01*
X963Y514D02*
X987Y514D01*
X963Y513D02*
X987Y513D01*
X964Y512D02*
X988Y512D01*
X964Y511D02*
X988Y511D01*
X964Y510D02*
X988Y510D01*
X965Y509D02*
X989Y509D01*
X965Y508D02*
X989Y508D01*
X965Y507D02*
X989Y507D01*
X965Y506D02*
X990Y506D01*
X966Y505D02*
X990Y505D01*
X966Y504D02*
X990Y504D01*
X966Y503D02*
X991Y503D01*
X967Y502D02*
X991Y502D01*
X967Y501D02*
X991Y501D01*
X967Y500D02*
X991Y500D01*
X968Y499D02*
X992Y499D01*
X968Y498D02*
X992Y498D01*
X968Y497D02*
X992Y497D01*
X969Y496D02*
X993Y496D01*
X969Y495D02*
X993Y495D01*
X969Y494D02*
X993Y494D01*
X970Y493D02*
X994Y493D01*
X970Y492D02*
X994Y492D01*
X970Y491D02*
X994Y491D01*
X970Y490D02*
X995Y490D01*
X971Y489D02*
X995Y489D01*
X971Y488D02*
X995Y488D01*
X971Y487D02*
X996Y487D01*
X972Y486D02*
X996Y486D01*
X972Y485D02*
X996Y485D01*
X972Y484D02*
X997Y484D01*
X973Y483D02*
X997Y483D01*
X973Y482D02*
X997Y482D01*
X973Y481D02*
X998Y481D01*
X974Y480D02*
X998Y480D01*
X974Y479D02*
X998Y479D01*
X974Y478D02*
X999Y478D01*
X975Y477D02*
X999Y477D01*
X975Y476D02*
X1000Y476D01*
X975Y475D02*
X1000Y475D01*
X976Y474D02*
X1000Y474D01*
X976Y473D02*
X1001Y473D01*
X977Y472D02*
X1001Y472D01*
X977Y471D02*
X1001Y471D01*
X977Y470D02*
X1002Y470D01*
X978Y469D02*
X1002Y469D01*
X978Y468D02*
X1002Y468D01*
X978Y467D02*
X1003Y467D01*
X979Y466D02*
X1003Y466D01*
X979Y465D02*
X1004Y465D01*
X979Y464D02*
X1004Y464D01*
X980Y463D02*
X1004Y463D01*
X980Y462D02*
X1005Y462D01*
X980Y461D02*
X1005Y461D01*
X981Y460D02*
X1006Y460D01*
X981Y459D02*
X1006Y459D01*
X982Y458D02*
X1006Y458D01*
X982Y457D02*
X1007Y457D01*
X982Y456D02*
X1007Y456D01*
X983Y455D02*
X1007Y455D01*
X983Y454D02*
X1008Y454D01*
X984Y453D02*
X1008Y453D01*
X984Y452D02*
X1009Y452D01*
X984Y451D02*
X1009Y451D01*
X985Y450D02*
X1009Y450D01*
X985Y449D02*
X1010Y449D01*
X985Y448D02*
X1010Y448D01*
X986Y447D02*
X1011Y447D01*
X986Y446D02*
X1011Y446D01*
X987Y445D02*
X1011Y445D01*
X987Y444D02*
X1012Y444D01*
X987Y443D02*
X1012Y443D01*
X988Y442D02*
X1013Y442D01*
X988Y441D02*
X1013Y441D01*
X989Y440D02*
X1014Y440D01*
X989Y439D02*
X1014Y439D01*
X989Y438D02*
X1014Y438D01*
X990Y437D02*
X1015Y437D01*
X990Y436D02*
X1015Y436D01*
X991Y435D02*
X1016Y435D01*
X991Y434D02*
X1016Y434D01*
X991Y433D02*
X1017Y433D01*
X992Y432D02*
X1017Y432D01*
X992Y431D02*
X1017Y431D01*
X993Y430D02*
X1018Y430D01*
X993Y429D02*
X1018Y429D01*
X994Y428D02*
X1019Y428D01*
X994Y427D02*
X1019Y427D01*
X995Y426D02*
X1020Y426D01*
X995Y425D02*
X1020Y425D01*
X995Y424D02*
X1021Y424D01*
X996Y423D02*
X1021Y423D01*
X996Y422D02*
X1022Y422D01*
X997Y421D02*
X1022Y421D01*
X997Y420D02*
X1023Y420D01*
X998Y419D02*
X1023Y419D01*
X998Y418D02*
X1024Y418D01*
X998Y417D02*
X1024Y417D01*
X999Y416D02*
X1025Y416D01*
X999Y415D02*
X1025Y415D01*
X1000Y414D02*
X1026Y414D01*
X1000Y413D02*
X1026Y413D01*
X1001Y412D02*
X1027Y412D01*
X1001Y411D02*
X1027Y411D01*
X1002Y410D02*
X1028Y410D01*
X1002Y409D02*
X1028Y409D01*
X1003Y408D02*
X1029Y408D01*
X1003Y407D02*
X1029Y407D01*
X1004Y406D02*
X1030Y406D01*
X1004Y405D02*
X1030Y405D01*
X1005Y404D02*
X1031Y404D01*
X1005Y403D02*
X1031Y403D01*
X1006Y402D02*
X1031Y402D01*
X1006Y401D02*
X1031Y401D01*
X1007Y400D02*
X1031Y400D01*
X1007Y399D02*
X1031Y399D01*
X1008Y398D02*
X1030Y398D01*
X1009Y397D02*
X1030Y397D01*
X1009Y396D02*
X1030Y396D01*
X1010Y395D02*
X1029Y395D01*
X1010Y394D02*
X1028Y394D01*
X1011Y393D02*
X1028Y393D01*
X1012Y392D02*
X1027Y392D01*
X1014Y391D02*
X1025Y391D01*
X1016Y390D02*
X1023Y390D01*
D02*
G04 End of Copper1*
M02*