; NON-PLATED HOLES START AT T1
; THROUGH (PLATED) HOLES START AT T100
M48
INCH
T100C0.030000
T101C0.035433
T102C0.035000
%
T100
X008418Y012170
X006418Y012170
X009420Y012170
X007420Y012170
T101
X008520Y004718
X009240Y010958
X005400Y003998
X021480Y013118
X017640Y004958
X006360Y002558
X004680Y005198
T102
X011335Y013275
X007335Y019275
X013335Y010275
X016335Y019275
X012335Y019275
X017335Y007275
X014335Y007275
X011335Y007275
X008335Y013275
X009335Y013275
X015335Y019275
X010335Y013275
X015335Y010275
X016335Y007275
X018335Y019275
X006335Y013275
X026096Y019570
X029096Y019570
X010335Y010275
X029096Y018570
X014335Y013275
X026096Y018570
X015335Y013275
X013335Y013275
X011335Y019275
X015335Y007275
X019335Y013275
X013335Y007275
X011335Y010275
X014335Y010275
X029096Y014570
X029096Y013570
X012335Y007275
X006335Y019275
X009335Y019275
X026096Y015570
X026096Y017570
X018335Y013275
X029096Y016570
X029096Y015570
X017335Y010275
X007335Y013275
X019335Y019275
X008335Y019275
X026096Y016570
X013335Y019275
X012335Y010275
X016335Y013275
X026096Y020570
X029096Y020570
X029096Y017570
X014335Y019275
X010335Y007275
X026096Y014570
X016335Y010275
X026096Y013570
X010335Y019275
X017335Y013275
X012335Y013275
X017335Y019275
T00
M30
