G04 MADE WITH FRITZING*
G04 WWW.FRITZING.ORG*
G04 DOUBLE SIDED*
G04 HOLES PLATED*
G04 CONTOUR ON CENTER OF CONTOUR VECTOR*
%ASAXBY*%
%FSLAX23Y23*%
%MOIN*%
%OFA0B0*%
%SFA1.0B1.0*%
%ADD10C,0.070000*%
%ADD11C,0.075433*%
%ADD12C,0.075000*%
%ADD13R,0.075000X0.075000*%
%ADD14C,0.024000*%
%ADD15C,0.020000*%
%ADD16R,0.001000X0.001000*%
%LNCOPPER0*%
G90*
G70*
G54D10*
X742Y1217D03*
X642Y1217D03*
X942Y1217D03*
X842Y1217D03*
G54D11*
X924Y1096D03*
X852Y472D03*
X540Y400D03*
X636Y256D03*
X1764Y496D03*
X2148Y1312D03*
X468Y520D03*
G54D12*
X634Y1328D03*
X634Y1928D03*
X734Y1328D03*
X734Y1928D03*
X834Y1328D03*
X834Y1928D03*
X934Y1328D03*
X934Y1928D03*
X1034Y1328D03*
X1034Y1928D03*
X1134Y1328D03*
X1134Y1928D03*
X1234Y1328D03*
X1234Y1928D03*
X1334Y1328D03*
X1334Y1928D03*
X1434Y1328D03*
X1434Y1928D03*
X1534Y1328D03*
X1534Y1928D03*
X1634Y1328D03*
X1634Y1928D03*
X1734Y1328D03*
X1734Y1928D03*
X1834Y1328D03*
X1834Y1928D03*
X1934Y1328D03*
X1934Y1928D03*
X1734Y1028D03*
X1734Y728D03*
X1634Y1028D03*
X1634Y728D03*
X1534Y1028D03*
X1534Y728D03*
X1434Y1028D03*
X1434Y728D03*
X1334Y1028D03*
X1334Y728D03*
X1234Y1028D03*
X1234Y728D03*
X1134Y1028D03*
X1134Y728D03*
X1034Y1028D03*
X1034Y728D03*
X2610Y2057D03*
X2910Y2057D03*
X2610Y1957D03*
X2910Y1957D03*
X2610Y1857D03*
X2910Y1857D03*
X2610Y1757D03*
X2910Y1757D03*
X2610Y1657D03*
X2910Y1657D03*
X2610Y1557D03*
X2910Y1557D03*
X2610Y1457D03*
X2910Y1457D03*
X2610Y1357D03*
X2910Y1357D03*
G54D13*
X634Y1328D03*
X2610Y2057D03*
G54D14*
X1634Y1299D02*
X1634Y1056D01*
D02*
X1534Y1299D02*
X1534Y1056D01*
D02*
X1434Y1299D02*
X1434Y1056D01*
D02*
X1334Y1299D02*
X1334Y1056D01*
D02*
X1734Y1056D02*
X1734Y1299D01*
D02*
X1234Y1299D02*
X1234Y1056D01*
D02*
X1043Y1300D02*
X1124Y1055D01*
D02*
X1639Y1956D02*
X1644Y1984D01*
D02*
X1644Y1984D02*
X2004Y2008D01*
X2004Y2008D02*
X2232Y1928D01*
D02*
X2232Y1928D02*
X2584Y1769D01*
D02*
X2582Y1962D02*
X2232Y2028D01*
D02*
X2232Y2028D02*
X2052Y2056D01*
X2052Y2056D02*
X1524Y2032D01*
X1524Y2032D02*
X1452Y1949D01*
D02*
X1353Y1948D02*
X1476Y2080D01*
D02*
X1476Y2080D02*
X2100Y2104D01*
X2100Y2104D02*
X2581Y2060D01*
D02*
X609Y1913D02*
X564Y1888D01*
D02*
X564Y1888D02*
X564Y1192D01*
D02*
X564Y1192D02*
X660Y1096D01*
D02*
X660Y1096D02*
X895Y1096D01*
D02*
X852Y501D02*
X852Y952D01*
D02*
X852Y952D02*
X1812Y952D01*
X1812Y952D02*
X2004Y1288D01*
X2004Y1288D02*
X2004Y1408D01*
X2004Y1408D02*
X1164Y1408D01*
X1164Y1408D02*
X1144Y1354D01*
D02*
X1720Y753D02*
X1692Y808D01*
X1692Y808D02*
X1212Y808D01*
X1212Y808D02*
X1154Y748D01*
D02*
X569Y400D02*
X924Y400D01*
D02*
X1092Y640D02*
X1121Y702D01*
D02*
X943Y1900D02*
X1092Y1456D01*
D02*
X1092Y1456D02*
X2052Y1456D01*
D02*
X2052Y1456D02*
X2052Y1216D01*
X2052Y1216D02*
X1860Y904D01*
X1860Y904D02*
X1212Y808D01*
D02*
X2888Y1439D02*
X2633Y1228D01*
D02*
X2633Y1228D02*
X2052Y1432D01*
D02*
X2052Y1432D02*
X2052Y1456D01*
D02*
X2934Y2042D02*
X2988Y2008D01*
D02*
X2988Y2008D02*
X2988Y1528D01*
X2988Y1528D02*
X2931Y1476D01*
D02*
X1218Y704D02*
X972Y328D01*
D02*
X972Y328D02*
X664Y262D01*
D02*
X1744Y516D02*
X1554Y707D01*
D02*
X2138Y1285D02*
X1836Y424D01*
D02*
X1534Y428D02*
X1443Y700D01*
D02*
X2733Y1627D02*
X2733Y2127D01*
D02*
X2733Y2127D02*
X2834Y2227D01*
D02*
X2834Y2227D02*
X3033Y2129D01*
D02*
X3033Y2129D02*
X3134Y1526D01*
D02*
X3134Y1526D02*
X3033Y1226D01*
D02*
X3033Y1226D02*
X2632Y1129D01*
D02*
X2632Y1129D02*
X2175Y1302D01*
D02*
X2883Y1768D02*
X2733Y1828D01*
D02*
X2733Y1828D02*
X2733Y1627D01*
D02*
X485Y543D02*
X804Y1000D01*
D02*
X804Y1000D02*
X1005Y1024D01*
G54D15*
X1761Y1000D02*
X1706Y1000D01*
X1706Y1055D01*
X1761Y1055D01*
X1761Y1000D01*
D02*
G54D16*
X1731Y1940D02*
X1735Y1940D01*
X1728Y1939D02*
X1738Y1939D01*
X1726Y1938D02*
X1739Y1938D01*
X1725Y1937D02*
X1741Y1937D01*
X1724Y1936D02*
X1742Y1936D01*
X1723Y1935D02*
X1742Y1935D01*
X1723Y1934D02*
X1743Y1934D01*
X1722Y1933D02*
X1743Y1933D01*
X1722Y1932D02*
X1744Y1932D01*
X1722Y1931D02*
X1744Y1931D01*
X1722Y1930D02*
X1744Y1930D01*
X1721Y1929D02*
X1744Y1929D01*
X1721Y1928D02*
X1744Y1928D01*
X1721Y1927D02*
X1745Y1927D01*
X1722Y1926D02*
X1745Y1926D01*
X1722Y1925D02*
X1745Y1925D01*
X1722Y1924D02*
X1745Y1924D01*
X1722Y1923D02*
X1745Y1923D01*
X1722Y1922D02*
X1745Y1922D01*
X1722Y1921D02*
X1745Y1921D01*
X1722Y1920D02*
X1745Y1920D01*
X1722Y1919D02*
X1746Y1919D01*
X1722Y1918D02*
X1746Y1918D01*
X1723Y1917D02*
X1746Y1917D01*
X1723Y1916D02*
X1746Y1916D01*
X1723Y1915D02*
X1746Y1915D01*
X1723Y1914D02*
X1746Y1914D01*
X1723Y1913D02*
X1746Y1913D01*
X1723Y1912D02*
X1747Y1912D01*
X1724Y1911D02*
X1747Y1911D01*
X1724Y1910D02*
X1747Y1910D01*
X1724Y1909D02*
X1747Y1909D01*
X1724Y1908D02*
X1747Y1908D01*
X1724Y1907D02*
X1748Y1907D01*
X1724Y1906D02*
X1748Y1906D01*
X1725Y1905D02*
X1748Y1905D01*
X1725Y1904D02*
X1748Y1904D01*
X1725Y1903D02*
X1749Y1903D01*
X1725Y1902D02*
X1749Y1902D01*
X1726Y1901D02*
X1749Y1901D01*
X1726Y1900D02*
X1749Y1900D01*
X1726Y1899D02*
X1750Y1899D01*
X1726Y1898D02*
X1750Y1898D01*
X1727Y1897D02*
X1750Y1897D01*
X1727Y1896D02*
X1750Y1896D01*
X1727Y1895D02*
X1751Y1895D01*
X1727Y1894D02*
X1751Y1894D01*
X1728Y1893D02*
X1751Y1893D01*
X1728Y1892D02*
X1752Y1892D01*
X1728Y1891D02*
X1752Y1891D01*
X1728Y1890D02*
X1752Y1890D01*
X1729Y1889D02*
X1753Y1889D01*
X1729Y1888D02*
X1753Y1888D01*
X1729Y1887D02*
X1753Y1887D01*
X1730Y1886D02*
X1754Y1886D01*
X1730Y1885D02*
X1754Y1885D01*
X1730Y1884D02*
X1755Y1884D01*
X1731Y1883D02*
X1755Y1883D01*
X1731Y1882D02*
X1755Y1882D01*
X1731Y1881D02*
X1756Y1881D01*
X1732Y1880D02*
X1756Y1880D01*
X1732Y1879D02*
X1757Y1879D01*
X1733Y1878D02*
X1757Y1878D01*
X1733Y1877D02*
X1757Y1877D01*
X1733Y1876D02*
X1758Y1876D01*
X1734Y1875D02*
X1758Y1875D01*
X1734Y1874D02*
X1759Y1874D01*
X1734Y1873D02*
X1759Y1873D01*
X1735Y1872D02*
X1760Y1872D01*
X1735Y1871D02*
X1760Y1871D01*
X1736Y1870D02*
X1761Y1870D01*
X1736Y1869D02*
X1761Y1869D01*
X1737Y1868D02*
X1762Y1868D01*
X1737Y1867D02*
X1762Y1867D01*
X1737Y1866D02*
X1763Y1866D01*
X1738Y1865D02*
X1763Y1865D01*
X1738Y1864D02*
X1764Y1864D01*
X1739Y1863D02*
X1765Y1863D01*
X1739Y1862D02*
X1765Y1862D01*
X1740Y1861D02*
X1766Y1861D01*
X1740Y1860D02*
X1766Y1860D01*
X1741Y1859D02*
X1767Y1859D01*
X1741Y1858D02*
X1768Y1858D01*
X1742Y1857D02*
X1768Y1857D01*
X1742Y1856D02*
X1769Y1856D01*
X1743Y1855D02*
X1769Y1855D01*
X1743Y1854D02*
X1770Y1854D01*
X1744Y1853D02*
X1771Y1853D01*
X1745Y1852D02*
X1772Y1852D01*
X1745Y1851D02*
X1772Y1851D01*
X1746Y1850D02*
X1773Y1850D01*
X1746Y1849D02*
X1774Y1849D01*
X1747Y1848D02*
X1774Y1848D01*
X1747Y1847D02*
X1775Y1847D01*
X1748Y1846D02*
X1776Y1846D01*
X1749Y1845D02*
X1776Y1845D01*
X1749Y1844D02*
X1777Y1844D01*
X1750Y1843D02*
X1778Y1843D01*
X1750Y1842D02*
X1779Y1842D01*
X1751Y1841D02*
X1780Y1841D01*
X1752Y1840D02*
X1780Y1840D01*
X1752Y1839D02*
X1781Y1839D01*
X1753Y1838D02*
X1782Y1838D01*
X1754Y1837D02*
X1783Y1837D01*
X1754Y1836D02*
X1784Y1836D01*
X1755Y1835D02*
X1784Y1835D01*
X1756Y1834D02*
X1785Y1834D01*
X1757Y1833D02*
X1786Y1833D01*
X1757Y1832D02*
X1787Y1832D01*
X1758Y1831D02*
X1788Y1831D01*
X1759Y1830D02*
X1789Y1830D01*
X1759Y1829D02*
X1790Y1829D01*
X1760Y1828D02*
X1791Y1828D01*
X1761Y1827D02*
X1792Y1827D01*
X1762Y1826D02*
X1793Y1826D01*
X1763Y1825D02*
X1794Y1825D01*
X1763Y1824D02*
X1794Y1824D01*
X1764Y1823D02*
X1795Y1823D01*
X1765Y1822D02*
X1796Y1822D01*
X1766Y1821D02*
X1797Y1821D01*
X1767Y1820D02*
X1798Y1820D01*
X1768Y1819D02*
X1800Y1819D01*
X1768Y1818D02*
X1801Y1818D01*
X1769Y1817D02*
X1802Y1817D01*
X1770Y1816D02*
X1803Y1816D01*
X1771Y1815D02*
X1804Y1815D01*
X1772Y1814D02*
X1805Y1814D01*
X1773Y1813D02*
X1806Y1813D01*
X1774Y1812D02*
X1807Y1812D01*
X1775Y1811D02*
X1808Y1811D01*
X1776Y1810D02*
X1809Y1810D01*
X1777Y1809D02*
X1811Y1809D01*
X1778Y1808D02*
X1812Y1808D01*
X1779Y1807D02*
X1813Y1807D01*
X1779Y1806D02*
X1814Y1806D01*
X1780Y1805D02*
X1815Y1805D01*
X1782Y1804D02*
X1816Y1804D01*
X1783Y1803D02*
X1818Y1803D01*
X1784Y1802D02*
X1819Y1802D01*
X1785Y1801D02*
X1820Y1801D01*
X1786Y1800D02*
X1822Y1800D01*
X1787Y1799D02*
X1823Y1799D01*
X1788Y1798D02*
X1824Y1798D01*
X1789Y1797D02*
X1826Y1797D01*
X1790Y1796D02*
X1827Y1796D01*
X1791Y1795D02*
X1828Y1795D01*
X1792Y1794D02*
X1830Y1794D01*
X1793Y1793D02*
X1831Y1793D01*
X1795Y1792D02*
X1833Y1792D01*
X1796Y1791D02*
X1834Y1791D01*
X1797Y1790D02*
X1836Y1790D01*
X1798Y1789D02*
X1837Y1789D01*
X1799Y1788D02*
X1838Y1788D01*
X1801Y1787D02*
X1840Y1787D01*
X1802Y1786D02*
X1841Y1786D01*
X1803Y1785D02*
X1843Y1785D01*
X1804Y1784D02*
X1845Y1784D01*
X1806Y1783D02*
X1846Y1783D01*
X1807Y1782D02*
X1848Y1782D01*
X1808Y1781D02*
X1850Y1781D01*
X1810Y1780D02*
X1851Y1780D01*
X1811Y1779D02*
X1853Y1779D01*
X1812Y1778D02*
X1854Y1778D01*
X1814Y1777D02*
X1856Y1777D01*
X1815Y1776D02*
X1858Y1776D01*
X1816Y1775D02*
X1860Y1775D01*
X1818Y1774D02*
X1861Y1774D01*
X1819Y1773D02*
X1863Y1773D01*
X1821Y1772D02*
X1865Y1772D01*
X1822Y1771D02*
X1867Y1771D01*
X1823Y1770D02*
X1869Y1770D01*
X1825Y1769D02*
X1870Y1769D01*
X1826Y1768D02*
X1872Y1768D01*
X1828Y1767D02*
X1874Y1767D01*
X1829Y1766D02*
X1876Y1766D01*
X1831Y1765D02*
X1878Y1765D01*
X1832Y1764D02*
X1880Y1764D01*
X1834Y1763D02*
X1882Y1763D01*
X1836Y1762D02*
X1884Y1762D01*
X1837Y1761D02*
X1886Y1761D01*
X1839Y1760D02*
X1888Y1760D01*
X1841Y1759D02*
X1891Y1759D01*
X1842Y1758D02*
X1893Y1758D01*
X1844Y1757D02*
X1895Y1757D01*
X1846Y1756D02*
X1897Y1756D01*
X1847Y1755D02*
X1899Y1755D01*
X1849Y1754D02*
X1901Y1754D01*
X1851Y1753D02*
X1904Y1753D01*
X1853Y1752D02*
X1906Y1752D01*
X1854Y1751D02*
X1908Y1751D01*
X1856Y1750D02*
X1911Y1750D01*
X1858Y1749D02*
X1913Y1749D01*
X1860Y1748D02*
X1915Y1748D01*
X1862Y1747D02*
X1918Y1747D01*
X1864Y1746D02*
X1920Y1746D01*
X1866Y1745D02*
X1923Y1745D01*
X1868Y1744D02*
X1925Y1744D01*
X1870Y1743D02*
X1928Y1743D01*
X1872Y1742D02*
X1931Y1742D01*
X1874Y1741D02*
X1933Y1741D01*
X1876Y1740D02*
X1936Y1740D01*
X1878Y1739D02*
X1939Y1739D01*
X1880Y1738D02*
X1941Y1738D01*
X1882Y1737D02*
X1944Y1737D01*
X1884Y1736D02*
X1947Y1736D01*
X1886Y1735D02*
X1950Y1735D01*
X1888Y1734D02*
X1953Y1734D01*
X1891Y1733D02*
X1956Y1733D01*
X1893Y1732D02*
X1959Y1732D01*
X1895Y1731D02*
X1962Y1731D01*
X1897Y1730D02*
X1965Y1730D01*
X1900Y1729D02*
X1968Y1729D01*
X1902Y1728D02*
X1971Y1728D01*
X1905Y1727D02*
X1974Y1727D01*
X1907Y1726D02*
X1978Y1726D01*
X1909Y1725D02*
X1981Y1725D01*
X1912Y1724D02*
X1984Y1724D01*
X1914Y1723D02*
X1987Y1723D01*
X1917Y1722D02*
X1991Y1722D01*
X1920Y1721D02*
X1995Y1721D01*
X1922Y1720D02*
X1998Y1720D01*
X1925Y1719D02*
X2002Y1719D01*
X1927Y1718D02*
X2005Y1718D01*
X1930Y1717D02*
X2009Y1717D01*
X1933Y1716D02*
X2013Y1716D01*
X1936Y1715D02*
X2017Y1715D01*
X1938Y1714D02*
X2021Y1714D01*
X1941Y1713D02*
X2025Y1713D01*
X1944Y1712D02*
X2029Y1712D01*
X1947Y1711D02*
X2033Y1711D01*
X1950Y1710D02*
X2037Y1710D01*
X1953Y1709D02*
X2041Y1709D01*
X1956Y1708D02*
X2046Y1708D01*
X1959Y1707D02*
X2050Y1707D01*
X1962Y1706D02*
X2055Y1706D01*
X1965Y1705D02*
X2059Y1705D01*
X1969Y1704D02*
X2064Y1704D01*
X1972Y1703D02*
X2069Y1703D01*
X1975Y1702D02*
X2074Y1702D01*
X1979Y1701D02*
X2079Y1701D01*
X1982Y1700D02*
X2084Y1700D01*
X1985Y1699D02*
X2089Y1699D01*
X1989Y1698D02*
X2095Y1698D01*
X1993Y1697D02*
X2100Y1697D01*
X1996Y1696D02*
X2106Y1696D01*
X2000Y1695D02*
X2111Y1695D01*
X2004Y1694D02*
X2117Y1694D01*
X2007Y1693D02*
X2123Y1693D01*
X2011Y1692D02*
X2129Y1692D01*
X2015Y1691D02*
X2136Y1691D01*
X2019Y1690D02*
X2142Y1690D01*
X2023Y1689D02*
X2149Y1689D01*
X2027Y1688D02*
X2156Y1688D01*
X2031Y1687D02*
X2163Y1687D01*
X2036Y1686D02*
X2170Y1686D01*
X2040Y1685D02*
X2178Y1685D01*
X2044Y1684D02*
X2186Y1684D01*
X2049Y1683D02*
X2194Y1683D01*
X2054Y1682D02*
X2202Y1682D01*
X2058Y1681D02*
X2211Y1681D01*
X2063Y1680D02*
X2220Y1680D01*
X2068Y1679D02*
X2231Y1679D01*
X2073Y1678D02*
X2241Y1678D01*
X2078Y1677D02*
X2252Y1677D01*
X2083Y1676D02*
X2262Y1676D01*
X2088Y1675D02*
X2275Y1675D01*
X2094Y1674D02*
X2288Y1674D01*
X2099Y1673D02*
X2301Y1673D01*
X2105Y1672D02*
X2318Y1672D01*
X2111Y1671D02*
X2334Y1671D01*
X2116Y1670D02*
X2354Y1670D01*
X2122Y1669D02*
X2376Y1669D01*
X2587Y1669D02*
X2613Y1669D01*
X2129Y1668D02*
X2408Y1668D01*
X2558Y1668D02*
X2615Y1668D01*
X2135Y1667D02*
X2472Y1667D01*
X2488Y1667D02*
X2616Y1667D01*
X2141Y1666D02*
X2617Y1666D01*
X2148Y1665D02*
X2618Y1665D01*
X2155Y1664D02*
X2619Y1664D01*
X2162Y1663D02*
X2619Y1663D01*
X2170Y1662D02*
X2620Y1662D01*
X2177Y1661D02*
X2620Y1661D01*
X2185Y1660D02*
X2620Y1660D01*
X2194Y1659D02*
X2620Y1659D01*
X2202Y1658D02*
X2620Y1658D01*
X2211Y1657D02*
X2620Y1657D01*
X2220Y1656D02*
X2620Y1656D01*
X2231Y1655D02*
X2620Y1655D01*
X2241Y1654D02*
X2620Y1654D01*
X2252Y1653D02*
X2619Y1653D01*
X2262Y1652D02*
X2619Y1652D01*
X2275Y1651D02*
X2618Y1651D01*
X2288Y1650D02*
X2617Y1650D01*
X2302Y1649D02*
X2616Y1649D01*
X2318Y1648D02*
X2615Y1648D01*
X2334Y1647D02*
X2613Y1647D01*
X2355Y1646D02*
X2609Y1646D01*
X2378Y1645D02*
X2587Y1645D01*
X2408Y1644D02*
X2557Y1644D01*
X2474Y1643D02*
X2483Y1643D01*
X2731Y1640D02*
X2734Y1640D01*
X2728Y1639D02*
X2737Y1639D01*
X2726Y1638D02*
X2739Y1638D01*
X2725Y1637D02*
X2740Y1637D01*
X2724Y1636D02*
X2741Y1636D01*
X2723Y1635D02*
X2742Y1635D01*
X2723Y1634D02*
X2743Y1634D01*
X2722Y1633D02*
X2743Y1633D01*
X2722Y1632D02*
X2743Y1632D01*
X2721Y1631D02*
X2744Y1631D01*
X2721Y1630D02*
X2744Y1630D01*
X2721Y1629D02*
X2745Y1629D01*
X2721Y1628D02*
X2745Y1628D01*
X2721Y1627D02*
X2745Y1627D01*
X2721Y1626D02*
X2746Y1626D01*
X2722Y1625D02*
X2746Y1625D01*
X2722Y1624D02*
X2746Y1624D01*
X2722Y1623D02*
X2747Y1623D01*
X2723Y1622D02*
X2747Y1622D01*
X2723Y1621D02*
X2747Y1621D01*
X2723Y1620D02*
X2748Y1620D01*
X2724Y1619D02*
X2748Y1619D01*
X2724Y1618D02*
X2748Y1618D01*
X2724Y1617D02*
X2749Y1617D01*
X2725Y1616D02*
X2749Y1616D01*
X2725Y1615D02*
X2749Y1615D01*
X2725Y1614D02*
X2750Y1614D01*
X2726Y1613D02*
X2750Y1613D01*
X2726Y1612D02*
X2750Y1612D01*
X2726Y1611D02*
X2750Y1611D01*
X2727Y1610D02*
X2751Y1610D01*
X2727Y1609D02*
X2751Y1609D01*
X2727Y1608D02*
X2751Y1608D01*
X2728Y1607D02*
X2752Y1607D01*
X2728Y1606D02*
X2752Y1606D01*
X2728Y1605D02*
X2752Y1605D01*
X2729Y1604D02*
X2752Y1604D01*
X2729Y1603D02*
X2753Y1603D01*
X2729Y1602D02*
X2753Y1602D01*
X2729Y1601D02*
X2753Y1601D01*
X2730Y1600D02*
X2753Y1600D01*
X2730Y1599D02*
X2754Y1599D01*
X2730Y1598D02*
X2754Y1598D01*
X2730Y1597D02*
X2754Y1597D01*
X2731Y1596D02*
X2755Y1596D01*
X2731Y1595D02*
X2755Y1595D01*
X2731Y1594D02*
X2755Y1594D01*
X2732Y1593D02*
X2755Y1593D01*
X2732Y1592D02*
X2756Y1592D01*
X2732Y1591D02*
X2756Y1591D01*
X2732Y1590D02*
X2756Y1590D01*
X2733Y1589D02*
X2756Y1589D01*
X2733Y1588D02*
X2756Y1588D01*
X2733Y1587D02*
X2757Y1587D01*
X2733Y1586D02*
X2757Y1586D01*
X2734Y1585D02*
X2757Y1585D01*
X2734Y1584D02*
X2757Y1584D01*
X2734Y1583D02*
X2758Y1583D01*
X2734Y1582D02*
X2758Y1582D01*
X2734Y1581D02*
X2758Y1581D01*
X2735Y1580D02*
X2758Y1580D01*
X2735Y1579D02*
X2758Y1579D01*
X2735Y1578D02*
X2759Y1578D01*
X2735Y1577D02*
X2759Y1577D01*
X2736Y1576D02*
X2759Y1576D01*
X2736Y1575D02*
X2759Y1575D01*
X2736Y1574D02*
X2759Y1574D01*
X2736Y1573D02*
X2760Y1573D01*
X2736Y1572D02*
X2760Y1572D01*
X2737Y1571D02*
X2760Y1571D01*
X2737Y1570D02*
X2760Y1570D01*
X2737Y1569D02*
X2760Y1569D01*
X2737Y1568D02*
X2760Y1568D01*
X2737Y1567D02*
X2761Y1567D01*
X2737Y1566D02*
X2761Y1566D01*
X2738Y1565D02*
X2761Y1565D01*
X2738Y1564D02*
X2761Y1564D01*
X2738Y1563D02*
X2761Y1563D01*
X2738Y1562D02*
X2761Y1562D01*
X2738Y1561D02*
X2762Y1561D01*
X2739Y1560D02*
X2762Y1560D01*
X2739Y1559D02*
X2762Y1559D01*
X2739Y1558D02*
X2762Y1558D01*
X2739Y1557D02*
X2762Y1557D01*
X2739Y1556D02*
X2762Y1556D01*
X2739Y1555D02*
X2762Y1555D01*
X2739Y1554D02*
X2763Y1554D01*
X2740Y1553D02*
X2763Y1553D01*
X2740Y1552D02*
X2763Y1552D01*
X2740Y1551D02*
X2763Y1551D01*
X2740Y1550D02*
X2763Y1550D01*
X2740Y1549D02*
X2763Y1549D01*
X2740Y1548D02*
X2763Y1548D01*
X2740Y1547D02*
X2763Y1547D01*
X2740Y1546D02*
X2763Y1546D01*
X2740Y1545D02*
X2764Y1545D01*
X2741Y1544D02*
X2764Y1544D01*
X2741Y1543D02*
X2764Y1543D01*
X2741Y1542D02*
X2764Y1542D01*
X2741Y1541D02*
X2764Y1541D01*
X2741Y1540D02*
X2764Y1540D01*
X2741Y1539D02*
X2764Y1539D01*
X2741Y1538D02*
X2764Y1538D01*
X2741Y1537D02*
X2764Y1537D01*
X2741Y1536D02*
X2764Y1536D01*
X2741Y1535D02*
X2764Y1535D01*
X2741Y1534D02*
X2764Y1534D01*
X2741Y1533D02*
X2764Y1533D01*
X2742Y1532D02*
X2765Y1532D01*
X2742Y1531D02*
X2765Y1531D01*
X2742Y1530D02*
X2765Y1530D01*
X2742Y1529D02*
X2765Y1529D01*
X2742Y1528D02*
X2765Y1528D01*
X2742Y1527D02*
X2765Y1527D01*
X2742Y1526D02*
X2765Y1526D01*
X2742Y1525D02*
X2765Y1525D01*
X2742Y1524D02*
X2765Y1524D01*
X2742Y1523D02*
X2765Y1523D01*
X2742Y1522D02*
X2765Y1522D01*
X2742Y1521D02*
X2765Y1521D01*
X2742Y1520D02*
X2765Y1520D01*
X2742Y1519D02*
X2765Y1519D01*
X2742Y1518D02*
X2765Y1518D01*
X2742Y1517D02*
X2765Y1517D01*
X2742Y1516D02*
X2765Y1516D01*
X2742Y1515D02*
X2765Y1515D01*
X2742Y1514D02*
X2765Y1514D01*
X2742Y1513D02*
X2765Y1513D01*
X2742Y1512D02*
X2765Y1512D01*
X2742Y1511D02*
X2765Y1511D01*
X2742Y1510D02*
X2765Y1510D01*
X2742Y1509D02*
X2765Y1509D01*
X2742Y1508D02*
X2765Y1508D01*
X2742Y1507D02*
X2765Y1507D01*
X2742Y1506D02*
X2765Y1506D01*
X2742Y1505D02*
X2765Y1505D01*
X2742Y1504D02*
X2765Y1504D01*
X2742Y1503D02*
X2765Y1503D01*
X2742Y1502D02*
X2765Y1502D01*
X2741Y1501D02*
X2764Y1501D01*
X2741Y1500D02*
X2764Y1500D01*
X2741Y1499D02*
X2764Y1499D01*
X2741Y1498D02*
X2764Y1498D01*
X2741Y1497D02*
X2764Y1497D01*
X2741Y1496D02*
X2764Y1496D01*
X2741Y1495D02*
X2764Y1495D01*
X2741Y1494D02*
X2764Y1494D01*
X2741Y1493D02*
X2764Y1493D01*
X2741Y1492D02*
X2764Y1492D01*
X2740Y1491D02*
X2764Y1491D01*
X2740Y1490D02*
X2764Y1490D01*
X2740Y1489D02*
X2763Y1489D01*
X2740Y1488D02*
X2763Y1488D01*
X2740Y1487D02*
X2763Y1487D01*
X2740Y1486D02*
X2763Y1486D01*
X2740Y1485D02*
X2763Y1485D01*
X2740Y1484D02*
X2763Y1484D01*
X2739Y1483D02*
X2762Y1483D01*
X2739Y1482D02*
X2762Y1482D01*
X2739Y1481D02*
X2762Y1481D01*
X2739Y1480D02*
X2762Y1480D01*
X2739Y1479D02*
X2762Y1479D01*
X2738Y1478D02*
X2762Y1478D01*
X2738Y1477D02*
X2762Y1477D01*
X2738Y1476D02*
X2761Y1476D01*
X2738Y1475D02*
X2761Y1475D01*
X2738Y1474D02*
X2761Y1474D01*
X2737Y1473D02*
X2761Y1473D01*
X2737Y1472D02*
X2761Y1472D01*
X2737Y1471D02*
X2760Y1471D01*
X2737Y1470D02*
X2760Y1470D01*
X2736Y1469D02*
X2760Y1469D01*
X2736Y1468D02*
X2760Y1468D01*
X2736Y1467D02*
X2759Y1467D01*
X2736Y1466D02*
X2759Y1466D01*
X2735Y1465D02*
X2759Y1465D01*
X2735Y1464D02*
X2759Y1464D01*
X2735Y1463D02*
X2758Y1463D01*
X2734Y1462D02*
X2758Y1462D01*
X2734Y1461D02*
X2758Y1461D01*
X2734Y1460D02*
X2758Y1460D01*
X2733Y1459D02*
X2757Y1459D01*
X2733Y1458D02*
X2757Y1458D01*
X2733Y1457D02*
X2757Y1457D01*
X2732Y1456D02*
X2756Y1456D01*
X2732Y1455D02*
X2756Y1455D01*
X2732Y1454D02*
X2756Y1454D01*
X2731Y1453D02*
X2755Y1453D01*
X2731Y1452D02*
X2755Y1452D01*
X2730Y1451D02*
X2755Y1451D01*
X2730Y1450D02*
X2754Y1450D01*
X2730Y1449D02*
X2754Y1449D01*
X2729Y1448D02*
X2754Y1448D01*
X2729Y1447D02*
X2753Y1447D01*
X2728Y1446D02*
X2753Y1446D01*
X2728Y1445D02*
X2753Y1445D01*
X2727Y1444D02*
X2752Y1444D01*
X2727Y1443D02*
X2752Y1443D01*
X2726Y1442D02*
X2751Y1442D01*
X2726Y1441D02*
X2751Y1441D01*
X2725Y1440D02*
X2751Y1440D01*
X2725Y1439D02*
X2750Y1439D01*
X2724Y1438D02*
X2750Y1438D01*
X2724Y1437D02*
X2749Y1437D01*
X2723Y1436D02*
X2749Y1436D01*
X2722Y1435D02*
X2748Y1435D01*
X2722Y1434D02*
X2748Y1434D01*
X2721Y1433D02*
X2747Y1433D01*
X2721Y1432D02*
X2747Y1432D01*
X2720Y1431D02*
X2746Y1431D01*
X2719Y1430D02*
X2746Y1430D01*
X2719Y1429D02*
X2745Y1429D01*
X2718Y1428D02*
X2745Y1428D01*
X2717Y1427D02*
X2744Y1427D01*
X2717Y1426D02*
X2744Y1426D01*
X2716Y1425D02*
X2743Y1425D01*
X2715Y1424D02*
X2743Y1424D01*
X2714Y1423D02*
X2742Y1423D01*
X2714Y1422D02*
X2742Y1422D01*
X2713Y1421D02*
X2741Y1421D01*
X2712Y1420D02*
X2740Y1420D01*
X2711Y1419D02*
X2740Y1419D01*
X2710Y1418D02*
X2739Y1418D01*
X2709Y1417D02*
X2738Y1417D01*
X2708Y1416D02*
X2738Y1416D01*
X2708Y1415D02*
X2737Y1415D01*
X2707Y1414D02*
X2736Y1414D01*
X2706Y1413D02*
X2736Y1413D01*
X2705Y1412D02*
X2735Y1412D01*
X2704Y1411D02*
X2734Y1411D01*
X2703Y1410D02*
X2734Y1410D01*
X2702Y1409D02*
X2733Y1409D01*
X2701Y1408D02*
X2732Y1408D01*
X2699Y1407D02*
X2731Y1407D01*
X2698Y1406D02*
X2730Y1406D01*
X2697Y1405D02*
X2730Y1405D01*
X2696Y1404D02*
X2729Y1404D01*
X2695Y1403D02*
X2728Y1403D01*
X2693Y1402D02*
X2727Y1402D01*
X2692Y1401D02*
X2726Y1401D01*
X2691Y1400D02*
X2725Y1400D01*
X2689Y1399D02*
X2724Y1399D01*
X2688Y1398D02*
X2723Y1398D01*
X2686Y1397D02*
X2722Y1397D01*
X2685Y1396D02*
X2721Y1396D01*
X2683Y1395D02*
X2721Y1395D01*
X2682Y1394D02*
X2720Y1394D01*
X2680Y1393D02*
X2718Y1393D01*
X2678Y1392D02*
X2717Y1392D01*
X2676Y1391D02*
X2716Y1391D01*
X2675Y1390D02*
X2715Y1390D01*
X2673Y1389D02*
X2714Y1389D01*
X2671Y1388D02*
X2713Y1388D01*
X2669Y1387D02*
X2712Y1387D01*
X2667Y1386D02*
X2711Y1386D01*
X2664Y1385D02*
X2709Y1385D01*
X2662Y1384D02*
X2708Y1384D01*
X2660Y1383D02*
X2707Y1383D01*
X2657Y1382D02*
X2705Y1382D01*
X2654Y1381D02*
X2704Y1381D01*
X2652Y1380D02*
X2703Y1380D01*
X2649Y1379D02*
X2701Y1379D01*
X2645Y1378D02*
X2700Y1378D01*
X2642Y1377D02*
X2698Y1377D01*
X2638Y1376D02*
X2697Y1376D01*
X2635Y1375D02*
X2695Y1375D01*
X2630Y1374D02*
X2694Y1374D01*
X2626Y1373D02*
X2692Y1373D01*
X2621Y1372D02*
X2691Y1372D01*
X2615Y1371D02*
X2689Y1371D01*
X2608Y1370D02*
X2687Y1370D01*
X2605Y1369D02*
X2685Y1369D01*
X2603Y1368D02*
X2683Y1368D01*
X2601Y1367D02*
X2681Y1367D01*
X2601Y1366D02*
X2679Y1366D01*
X2600Y1365D02*
X2677Y1365D01*
X2599Y1364D02*
X2675Y1364D01*
X2599Y1363D02*
X2673Y1363D01*
X2598Y1362D02*
X2670Y1362D01*
X2598Y1361D02*
X2668Y1361D01*
X2598Y1360D02*
X2666Y1360D01*
X2597Y1359D02*
X2663Y1359D01*
X2597Y1358D02*
X2660Y1358D01*
X2598Y1357D02*
X2657Y1357D01*
X2598Y1356D02*
X2654Y1356D01*
X2598Y1355D02*
X2651Y1355D01*
X2598Y1354D02*
X2648Y1354D01*
X2599Y1353D02*
X2644Y1353D01*
X2599Y1352D02*
X2640Y1352D01*
X2600Y1351D02*
X2636Y1351D01*
X2601Y1350D02*
X2632Y1350D01*
X2602Y1349D02*
X2627Y1349D01*
X2603Y1348D02*
X2622Y1348D01*
X2605Y1347D02*
X2616Y1347D01*
X1090Y653D02*
X1093Y653D01*
X1087Y652D02*
X1096Y652D01*
X1085Y651D02*
X1098Y651D01*
X1084Y650D02*
X1099Y650D01*
X1083Y649D02*
X1100Y649D01*
X1082Y648D02*
X1101Y648D01*
X1081Y647D02*
X1101Y647D01*
X1081Y646D02*
X1102Y646D01*
X1081Y645D02*
X1102Y645D01*
X1080Y644D02*
X1103Y644D01*
X1080Y643D02*
X1103Y643D01*
X1079Y642D02*
X1103Y642D01*
X1079Y641D02*
X1103Y641D01*
X1079Y640D02*
X1103Y640D01*
X1078Y639D02*
X1103Y639D01*
X1078Y638D02*
X1102Y638D01*
X1077Y637D02*
X1102Y637D01*
X1077Y636D02*
X1102Y636D01*
X1077Y635D02*
X1101Y635D01*
X1076Y634D02*
X1101Y634D01*
X1076Y633D02*
X1101Y633D01*
X1075Y632D02*
X1100Y632D01*
X1075Y631D02*
X1100Y631D01*
X1074Y630D02*
X1099Y630D01*
X1074Y629D02*
X1099Y629D01*
X1074Y628D02*
X1099Y628D01*
X1073Y627D02*
X1098Y627D01*
X1073Y626D02*
X1098Y626D01*
X1072Y625D02*
X1097Y625D01*
X1072Y624D02*
X1097Y624D01*
X1071Y623D02*
X1097Y623D01*
X1071Y622D02*
X1096Y622D01*
X1071Y621D02*
X1096Y621D01*
X1070Y620D02*
X1095Y620D01*
X1070Y619D02*
X1095Y619D01*
X1069Y618D02*
X1094Y618D01*
X1069Y617D02*
X1094Y617D01*
X1068Y616D02*
X1094Y616D01*
X1068Y615D02*
X1093Y615D01*
X1067Y614D02*
X1093Y614D01*
X1067Y613D02*
X1092Y613D01*
X1066Y612D02*
X1092Y612D01*
X1066Y611D02*
X1091Y611D01*
X1065Y610D02*
X1091Y610D01*
X1065Y609D02*
X1090Y609D01*
X1065Y608D02*
X1090Y608D01*
X1064Y607D02*
X1090Y607D01*
X1064Y606D02*
X1089Y606D01*
X1063Y605D02*
X1089Y605D01*
X1063Y604D02*
X1088Y604D01*
X1062Y603D02*
X1088Y603D01*
X1062Y602D02*
X1087Y602D01*
X1061Y601D02*
X1087Y601D01*
X1061Y600D02*
X1086Y600D01*
X1060Y599D02*
X1086Y599D01*
X1060Y598D02*
X1085Y598D01*
X1059Y597D02*
X1085Y597D01*
X1059Y596D02*
X1084Y596D01*
X1058Y595D02*
X1084Y595D01*
X1058Y594D02*
X1083Y594D01*
X1057Y593D02*
X1083Y593D01*
X1056Y592D02*
X1082Y592D01*
X1056Y591D02*
X1082Y591D01*
X1055Y590D02*
X1081Y590D01*
X1055Y589D02*
X1081Y589D01*
X1054Y588D02*
X1080Y588D01*
X1054Y587D02*
X1080Y587D01*
X1053Y586D02*
X1079Y586D01*
X1053Y585D02*
X1079Y585D01*
X1052Y584D02*
X1078Y584D01*
X1052Y583D02*
X1078Y583D01*
X1051Y582D02*
X1077Y582D01*
X1051Y581D02*
X1077Y581D01*
X1050Y580D02*
X1076Y580D01*
X1049Y579D02*
X1076Y579D01*
X1049Y578D02*
X1075Y578D01*
X1048Y577D02*
X1075Y577D01*
X1048Y576D02*
X1074Y576D01*
X1047Y575D02*
X1074Y575D01*
X1047Y574D02*
X1073Y574D01*
X1046Y573D02*
X1073Y573D01*
X1046Y572D02*
X1072Y572D01*
X1045Y571D02*
X1071Y571D01*
X1044Y570D02*
X1071Y570D01*
X1044Y569D02*
X1070Y569D01*
X1043Y568D02*
X1070Y568D01*
X1043Y567D02*
X1069Y567D01*
X1042Y566D02*
X1069Y566D01*
X1041Y565D02*
X1068Y565D01*
X1041Y564D02*
X1067Y564D01*
X1040Y563D02*
X1067Y563D01*
X1040Y562D02*
X1066Y562D01*
X1039Y561D02*
X1066Y561D01*
X1038Y560D02*
X1065Y560D01*
X1038Y559D02*
X1065Y559D01*
X1037Y558D02*
X1064Y558D01*
X1037Y557D02*
X1063Y557D01*
X1036Y556D02*
X1063Y556D01*
X1035Y555D02*
X1062Y555D01*
X1035Y554D02*
X1062Y554D01*
X1034Y553D02*
X1061Y553D01*
X1034Y552D02*
X1061Y552D01*
X1033Y551D02*
X1060Y551D01*
X1032Y550D02*
X1059Y550D01*
X1032Y549D02*
X1059Y549D01*
X1031Y548D02*
X1058Y548D01*
X1030Y547D02*
X1058Y547D01*
X1030Y546D02*
X1057Y546D01*
X1029Y545D02*
X1056Y545D01*
X1028Y544D02*
X1056Y544D01*
X1028Y543D02*
X1055Y543D01*
X1027Y542D02*
X1054Y542D01*
X1026Y541D02*
X1054Y541D01*
X1026Y540D02*
X1053Y540D01*
X1025Y539D02*
X1053Y539D01*
X1024Y538D02*
X1052Y538D01*
X1024Y537D02*
X1051Y537D01*
X1023Y536D02*
X1051Y536D01*
X1022Y535D02*
X1050Y535D01*
X1022Y534D02*
X1049Y534D01*
X1021Y533D02*
X1049Y533D01*
X1020Y532D02*
X1048Y532D01*
X1020Y531D02*
X1047Y531D01*
X1019Y530D02*
X1047Y530D01*
X1018Y529D02*
X1046Y529D01*
X1018Y528D02*
X1045Y528D01*
X1017Y527D02*
X1045Y527D01*
X1016Y526D02*
X1044Y526D01*
X1015Y525D02*
X1043Y525D01*
X1015Y524D02*
X1043Y524D01*
X1014Y523D02*
X1042Y523D01*
X1013Y522D02*
X1041Y522D01*
X1013Y521D02*
X1041Y521D01*
X1012Y520D02*
X1040Y520D01*
X1011Y519D02*
X1039Y519D01*
X1011Y518D02*
X1039Y518D01*
X1010Y517D02*
X1038Y517D01*
X1009Y516D02*
X1037Y516D01*
X1008Y515D02*
X1037Y515D01*
X1008Y514D02*
X1036Y514D01*
X1007Y513D02*
X1035Y513D01*
X1006Y512D02*
X1035Y512D01*
X1006Y511D02*
X1034Y511D01*
X1005Y510D02*
X1033Y510D01*
X1004Y509D02*
X1033Y509D01*
X1003Y508D02*
X1032Y508D01*
X1003Y507D02*
X1031Y507D01*
X1002Y506D02*
X1030Y506D01*
X1001Y505D02*
X1030Y505D01*
X1000Y504D02*
X1029Y504D01*
X999Y503D02*
X1028Y503D01*
X999Y502D02*
X1028Y502D01*
X998Y501D02*
X1027Y501D01*
X997Y500D02*
X1026Y500D01*
X996Y499D02*
X1025Y499D01*
X996Y498D02*
X1025Y498D01*
X995Y497D02*
X1024Y497D01*
X994Y496D02*
X1023Y496D01*
X993Y495D02*
X1023Y495D01*
X993Y494D02*
X1022Y494D01*
X992Y493D02*
X1021Y493D01*
X991Y492D02*
X1020Y492D01*
X990Y491D02*
X1019Y491D01*
X989Y490D02*
X1019Y490D01*
X989Y489D02*
X1018Y489D01*
X988Y488D02*
X1017Y488D01*
X987Y487D02*
X1016Y487D01*
X986Y486D02*
X1016Y486D01*
X985Y485D02*
X1015Y485D01*
X985Y484D02*
X1014Y484D01*
X984Y483D02*
X1013Y483D01*
X983Y482D02*
X1013Y482D01*
X982Y481D02*
X1012Y481D01*
X981Y480D02*
X1011Y480D01*
X981Y479D02*
X1010Y479D01*
X980Y478D02*
X1010Y478D01*
X979Y477D02*
X1009Y477D01*
X978Y476D02*
X1008Y476D01*
X977Y475D02*
X1007Y475D01*
X976Y474D02*
X1006Y474D01*
X976Y473D02*
X1006Y473D01*
X975Y472D02*
X1005Y472D01*
X974Y471D02*
X1004Y471D01*
X973Y470D02*
X1003Y470D01*
X972Y469D02*
X1002Y469D01*
X971Y468D02*
X1002Y468D01*
X970Y467D02*
X1001Y467D01*
X970Y466D02*
X1000Y466D01*
X969Y465D02*
X999Y465D01*
X968Y464D02*
X998Y464D01*
X967Y463D02*
X998Y463D01*
X966Y462D02*
X997Y462D01*
X965Y461D02*
X996Y461D01*
X964Y460D02*
X995Y460D01*
X964Y459D02*
X994Y459D01*
X963Y458D02*
X993Y458D01*
X962Y457D02*
X992Y457D01*
X961Y456D02*
X992Y456D01*
X960Y455D02*
X991Y455D01*
X959Y454D02*
X990Y454D01*
X958Y453D02*
X989Y453D01*
X957Y452D02*
X988Y452D01*
X956Y451D02*
X987Y451D01*
X955Y450D02*
X987Y450D01*
X955Y449D02*
X986Y449D01*
X954Y448D02*
X985Y448D01*
X953Y447D02*
X984Y447D01*
X952Y446D02*
X983Y446D01*
X951Y445D02*
X982Y445D01*
X950Y444D02*
X981Y444D01*
X949Y443D02*
X980Y443D01*
X948Y442D02*
X980Y442D01*
X947Y441D02*
X979Y441D01*
X1531Y441D02*
X1536Y441D01*
X946Y440D02*
X978Y440D01*
X1528Y440D02*
X1538Y440D01*
X945Y439D02*
X977Y439D01*
X1527Y439D02*
X1540Y439D01*
X944Y438D02*
X976Y438D01*
X1525Y438D02*
X1541Y438D01*
X943Y437D02*
X975Y437D01*
X1524Y437D02*
X1542Y437D01*
X1834Y437D02*
X1837Y437D01*
X942Y436D02*
X974Y436D01*
X1524Y436D02*
X1543Y436D01*
X1831Y436D02*
X1840Y436D01*
X941Y435D02*
X973Y435D01*
X1523Y435D02*
X1543Y435D01*
X1829Y435D02*
X1842Y435D01*
X940Y434D02*
X972Y434D01*
X1523Y434D02*
X1544Y434D01*
X1828Y434D02*
X1843Y434D01*
X939Y433D02*
X971Y433D01*
X1522Y433D02*
X1544Y433D01*
X1827Y433D02*
X1844Y433D01*
X938Y432D02*
X971Y432D01*
X1522Y432D02*
X1545Y432D01*
X1826Y432D02*
X1845Y432D01*
X937Y431D02*
X970Y431D01*
X1522Y431D02*
X1545Y431D01*
X1825Y431D02*
X1845Y431D01*
X937Y430D02*
X969Y430D01*
X1522Y430D02*
X1545Y430D01*
X1824Y430D02*
X1846Y430D01*
X936Y429D02*
X968Y429D01*
X1522Y429D02*
X1546Y429D01*
X1823Y429D02*
X1846Y429D01*
X935Y428D02*
X967Y428D01*
X1522Y428D02*
X1546Y428D01*
X1822Y428D02*
X1846Y428D01*
X934Y427D02*
X966Y427D01*
X1522Y427D02*
X1546Y427D01*
X1821Y427D02*
X1847Y427D01*
X933Y426D02*
X965Y426D01*
X1522Y426D02*
X1547Y426D01*
X1820Y426D02*
X1847Y426D01*
X931Y425D02*
X964Y425D01*
X1523Y425D02*
X1547Y425D01*
X1819Y425D02*
X1847Y425D01*
X930Y424D02*
X963Y424D01*
X1523Y424D02*
X1548Y424D01*
X1818Y424D02*
X1847Y424D01*
X929Y423D02*
X962Y423D01*
X1523Y423D02*
X1548Y423D01*
X1817Y423D02*
X1847Y423D01*
X928Y422D02*
X961Y422D01*
X1524Y422D02*
X1548Y422D01*
X1816Y422D02*
X1846Y422D01*
X927Y421D02*
X960Y421D01*
X1524Y421D02*
X1549Y421D01*
X1815Y421D02*
X1846Y421D01*
X926Y420D02*
X959Y420D01*
X1524Y420D02*
X1549Y420D01*
X1814Y420D02*
X1846Y420D01*
X925Y419D02*
X958Y419D01*
X1525Y419D02*
X1549Y419D01*
X1813Y419D02*
X1845Y419D01*
X924Y418D02*
X957Y418D01*
X1525Y418D02*
X1550Y418D01*
X1812Y418D02*
X1844Y418D01*
X923Y417D02*
X956Y417D01*
X1526Y417D02*
X1550Y417D01*
X1811Y417D02*
X1844Y417D01*
X922Y416D02*
X955Y416D01*
X1526Y416D02*
X1551Y416D01*
X1810Y416D02*
X1843Y416D01*
X921Y415D02*
X954Y415D01*
X1526Y415D02*
X1551Y415D01*
X1809Y415D02*
X1842Y415D01*
X920Y414D02*
X953Y414D01*
X1527Y414D02*
X1551Y414D01*
X1808Y414D02*
X1841Y414D01*
X919Y413D02*
X952Y413D01*
X1527Y413D02*
X1552Y413D01*
X1808Y413D02*
X1840Y413D01*
X918Y412D02*
X951Y412D01*
X1527Y412D02*
X1552Y412D01*
X1807Y412D02*
X1839Y412D01*
X917Y411D02*
X950Y411D01*
X1528Y411D02*
X1553Y411D01*
X1806Y411D02*
X1838Y411D01*
X916Y410D02*
X949Y410D01*
X1528Y410D02*
X1553Y410D01*
X1805Y410D02*
X1837Y410D01*
X915Y409D02*
X948Y409D01*
X1529Y409D02*
X1553Y409D01*
X1804Y409D02*
X1836Y409D01*
X914Y408D02*
X947Y408D01*
X1529Y408D02*
X1554Y408D01*
X1803Y408D02*
X1835Y408D01*
X913Y407D02*
X946Y407D01*
X1529Y407D02*
X1554Y407D01*
X1802Y407D02*
X1834Y407D01*
X913Y406D02*
X945Y406D01*
X1530Y406D02*
X1555Y406D01*
X1801Y406D02*
X1833Y406D01*
X913Y405D02*
X944Y405D01*
X1530Y405D02*
X1555Y405D01*
X1800Y405D02*
X1832Y405D01*
X912Y404D02*
X943Y404D01*
X1530Y404D02*
X1555Y404D01*
X1799Y404D02*
X1831Y404D01*
X912Y403D02*
X942Y403D01*
X1531Y403D02*
X1556Y403D01*
X1798Y403D02*
X1830Y403D01*
X912Y402D02*
X941Y402D01*
X1531Y402D02*
X1556Y402D01*
X1797Y402D02*
X1829Y402D01*
X912Y401D02*
X940Y401D01*
X1532Y401D02*
X1557Y401D01*
X1796Y401D02*
X1828Y401D01*
X912Y400D02*
X939Y400D01*
X1532Y400D02*
X1557Y400D01*
X1795Y400D02*
X1827Y400D01*
X912Y399D02*
X938Y399D01*
X1533Y399D02*
X1557Y399D01*
X1794Y399D02*
X1826Y399D01*
X912Y398D02*
X937Y398D01*
X1533Y398D02*
X1558Y398D01*
X1793Y398D02*
X1825Y398D01*
X913Y397D02*
X936Y397D01*
X1533Y397D02*
X1558Y397D01*
X1792Y397D02*
X1824Y397D01*
X913Y396D02*
X935Y396D01*
X1534Y396D02*
X1559Y396D01*
X1791Y396D02*
X1823Y396D01*
X914Y395D02*
X934Y395D01*
X1534Y395D02*
X1559Y395D01*
X1790Y395D02*
X1822Y395D01*
X914Y394D02*
X933Y394D01*
X1535Y394D02*
X1560Y394D01*
X1789Y394D02*
X1822Y394D01*
X915Y393D02*
X932Y393D01*
X1535Y393D02*
X1560Y393D01*
X1788Y393D02*
X1821Y393D01*
X916Y392D02*
X931Y392D01*
X1535Y392D02*
X1561Y392D01*
X1787Y392D02*
X1820Y392D01*
X918Y391D02*
X929Y391D01*
X1536Y391D02*
X1561Y391D01*
X1786Y391D02*
X1819Y391D01*
X920Y390D02*
X927Y390D01*
X1536Y390D02*
X1562Y390D01*
X1785Y390D02*
X1818Y390D01*
X1537Y389D02*
X1562Y389D01*
X1784Y389D02*
X1817Y389D01*
X1537Y388D02*
X1562Y388D01*
X1783Y388D02*
X1816Y388D01*
X1538Y387D02*
X1563Y387D01*
X1782Y387D02*
X1815Y387D01*
X1538Y386D02*
X1563Y386D01*
X1781Y386D02*
X1814Y386D01*
X1538Y385D02*
X1564Y385D01*
X1780Y385D02*
X1813Y385D01*
X1539Y384D02*
X1564Y384D01*
X1779Y384D02*
X1812Y384D01*
X1539Y383D02*
X1565Y383D01*
X1778Y383D02*
X1811Y383D01*
X1540Y382D02*
X1565Y382D01*
X1776Y382D02*
X1810Y382D01*
X1540Y381D02*
X1566Y381D01*
X1775Y381D02*
X1809Y381D01*
X1541Y380D02*
X1566Y380D01*
X1774Y380D02*
X1808Y380D01*
X1541Y379D02*
X1567Y379D01*
X1773Y379D02*
X1807Y379D01*
X1542Y378D02*
X1567Y378D01*
X1772Y378D02*
X1806Y378D01*
X1542Y377D02*
X1568Y377D01*
X1771Y377D02*
X1805Y377D01*
X1543Y376D02*
X1568Y376D01*
X1770Y376D02*
X1804Y376D01*
X1543Y375D02*
X1569Y375D01*
X1769Y375D02*
X1803Y375D01*
X1544Y374D02*
X1569Y374D01*
X1768Y374D02*
X1802Y374D01*
X1544Y373D02*
X1570Y373D01*
X1767Y373D02*
X1801Y373D01*
X1545Y372D02*
X1570Y372D01*
X1766Y372D02*
X1800Y372D01*
X1545Y371D02*
X1571Y371D01*
X1765Y371D02*
X1799Y371D01*
X1546Y370D02*
X1572Y370D01*
X1764Y370D02*
X1798Y370D01*
X1546Y369D02*
X1572Y369D01*
X1763Y369D02*
X1796Y369D01*
X1547Y368D02*
X1573Y368D01*
X1762Y368D02*
X1795Y368D01*
X1547Y367D02*
X1573Y367D01*
X1761Y367D02*
X1794Y367D01*
X1548Y366D02*
X1574Y366D01*
X1760Y366D02*
X1793Y366D01*
X1548Y365D02*
X1574Y365D01*
X1758Y365D02*
X1792Y365D01*
X1549Y364D02*
X1575Y364D01*
X1757Y364D02*
X1791Y364D01*
X1549Y363D02*
X1576Y363D01*
X1756Y363D02*
X1790Y363D01*
X1550Y362D02*
X1576Y362D01*
X1755Y362D02*
X1789Y362D01*
X1550Y361D02*
X1577Y361D01*
X1754Y361D02*
X1788Y361D01*
X1551Y360D02*
X1577Y360D01*
X1753Y360D02*
X1787Y360D01*
X1551Y359D02*
X1578Y359D01*
X1752Y359D02*
X1786Y359D01*
X1552Y358D02*
X1579Y358D01*
X1750Y358D02*
X1785Y358D01*
X1553Y357D02*
X1579Y357D01*
X1749Y357D02*
X1784Y357D01*
X1553Y356D02*
X1580Y356D01*
X1748Y356D02*
X1783Y356D01*
X1554Y355D02*
X1580Y355D01*
X1747Y355D02*
X1782Y355D01*
X1554Y354D02*
X1581Y354D01*
X1746Y354D02*
X1781Y354D01*
X1555Y353D02*
X1582Y353D01*
X1745Y353D02*
X1780Y353D01*
X1555Y352D02*
X1582Y352D01*
X1744Y352D02*
X1779Y352D01*
X1556Y351D02*
X1583Y351D01*
X1742Y351D02*
X1778Y351D01*
X1557Y350D02*
X1584Y350D01*
X1741Y350D02*
X1776Y350D01*
X1557Y349D02*
X1585Y349D01*
X1740Y349D02*
X1775Y349D01*
X1558Y348D02*
X1585Y348D01*
X1739Y348D02*
X1774Y348D01*
X1558Y347D02*
X1586Y347D01*
X1737Y347D02*
X1773Y347D01*
X1559Y346D02*
X1587Y346D01*
X1736Y346D02*
X1772Y346D01*
X1560Y345D02*
X1587Y345D01*
X1735Y345D02*
X1771Y345D01*
X1560Y344D02*
X1588Y344D01*
X1734Y344D02*
X1770Y344D01*
X1561Y343D02*
X1589Y343D01*
X1732Y343D02*
X1769Y343D01*
X1562Y342D02*
X1590Y342D01*
X1731Y342D02*
X1767Y342D01*
X1562Y341D02*
X1591Y341D01*
X1730Y341D02*
X1766Y341D01*
X1563Y340D02*
X1591Y340D01*
X1728Y340D02*
X1765Y340D01*
X1563Y339D02*
X1592Y339D01*
X1727Y339D02*
X1764Y339D01*
X1564Y338D02*
X1593Y338D01*
X1726Y338D02*
X1763Y338D01*
X1565Y337D02*
X1594Y337D01*
X1724Y337D02*
X1762Y337D01*
X1565Y336D02*
X1595Y336D01*
X1723Y336D02*
X1760Y336D01*
X1566Y335D02*
X1596Y335D01*
X1722Y335D02*
X1759Y335D01*
X1567Y334D02*
X1596Y334D01*
X1720Y334D02*
X1758Y334D01*
X1568Y333D02*
X1597Y333D01*
X1719Y333D02*
X1757Y333D01*
X1568Y332D02*
X1598Y332D01*
X1717Y332D02*
X1756Y332D01*
X1569Y331D02*
X1599Y331D01*
X1716Y331D02*
X1754Y331D01*
X1570Y330D02*
X1600Y330D01*
X1714Y330D02*
X1753Y330D01*
X1571Y329D02*
X1601Y329D01*
X1713Y329D02*
X1752Y329D01*
X1571Y328D02*
X1602Y328D01*
X1711Y328D02*
X1751Y328D01*
X1572Y327D02*
X1603Y327D01*
X1710Y327D02*
X1749Y327D01*
X1573Y326D02*
X1604Y326D01*
X1708Y326D02*
X1748Y326D01*
X1574Y325D02*
X1606Y325D01*
X1706Y325D02*
X1747Y325D01*
X1574Y324D02*
X1607Y324D01*
X1705Y324D02*
X1746Y324D01*
X1575Y323D02*
X1608Y323D01*
X1703Y323D02*
X1744Y323D01*
X1576Y322D02*
X1609Y322D01*
X1701Y322D02*
X1743Y322D01*
X1577Y321D02*
X1610Y321D01*
X1699Y321D02*
X1742Y321D01*
X1578Y320D02*
X1612Y320D01*
X1698Y320D02*
X1740Y320D01*
X1579Y319D02*
X1613Y319D01*
X1696Y319D02*
X1739Y319D01*
X1580Y318D02*
X1614Y318D01*
X1694Y318D02*
X1738Y318D01*
X1580Y317D02*
X1616Y317D01*
X1691Y317D02*
X1736Y317D01*
X1581Y316D02*
X1617Y316D01*
X1689Y316D02*
X1735Y316D01*
X1582Y315D02*
X1619Y315D01*
X1687Y315D02*
X1733Y315D01*
X1583Y314D02*
X1621Y314D01*
X1685Y314D02*
X1732Y314D01*
X1584Y313D02*
X1623Y313D01*
X1682Y313D02*
X1731Y313D01*
X1585Y312D02*
X1625Y312D01*
X1680Y312D02*
X1729Y312D01*
X1586Y311D02*
X1627Y311D01*
X1677Y311D02*
X1728Y311D01*
X1587Y310D02*
X1630Y310D01*
X1673Y310D02*
X1726Y310D01*
X1588Y309D02*
X1633Y309D01*
X1670Y309D02*
X1725Y309D01*
X1589Y308D02*
X1637Y308D01*
X1665Y308D02*
X1723Y308D01*
X1591Y307D02*
X1642Y307D01*
X1660Y307D02*
X1721Y307D01*
X1592Y306D02*
X1720Y306D01*
X1593Y305D02*
X1718Y305D01*
X1594Y304D02*
X1717Y304D01*
X1595Y303D02*
X1715Y303D01*
X1597Y302D02*
X1713Y302D01*
X1598Y301D02*
X1711Y301D01*
X1599Y300D02*
X1710Y300D01*
X1601Y299D02*
X1708Y299D01*
X1602Y298D02*
X1706Y298D01*
X1604Y297D02*
X1704Y297D01*
X1605Y296D02*
X1702Y296D01*
X1607Y295D02*
X1700Y295D01*
X1609Y294D02*
X1698Y294D01*
X1611Y293D02*
X1695Y293D01*
X1613Y292D02*
X1693Y292D01*
X1615Y291D02*
X1691Y291D01*
X1617Y290D02*
X1688Y290D01*
X1619Y289D02*
X1685Y289D01*
X1622Y288D02*
X1683Y288D01*
X1624Y287D02*
X1679Y287D01*
X1627Y286D02*
X1676Y286D01*
X1631Y285D02*
X1672Y285D01*
X1636Y284D02*
X1667Y284D01*
X1644Y283D02*
X1658Y283D01*
D02*
G04 End of Copper0*
M02*